<svg width="75" height="75" viewBox="0 0 75 75" fill="none" xmlns="http://www.w3.org/2000/svg">
<g clip-path="url(#clip0)">
<path d="M1.1095 64.7192H48.8903V73.8905H1.1095V64.7192Z" fill="#FF3D7F"/>
<path d="M45.6356 64.7192C44.9673 66.2092 44.6005 67.8497 44.6005 69.5532V69.6007C44.6005 70.2541 44.0706 70.784 43.4172 70.784H1.1095V73.8905H48.8903V64.7192H45.6356Z" fill="#E91E63"/>
<path d="M73.8905 73.8905V69.5532C73.8905 65.7738 71.4969 62.4086 67.9264 61.1687L63.2394 59.5413H58.2098L53.5234 61.1687C49.9529 62.4086 47.5593 65.7738 47.5593 69.5532V73.8905H73.8905Z" fill="#A0D468"/>
<path d="M67.9264 61.1687L67.0967 60.8809C69.2842 62.5271 70.6363 65.1329 70.6363 67.9733V73.8905H73.8905V69.5532C73.8905 65.7738 71.4969 62.4086 67.9264 61.1687Z" fill="#7BB43D"/>
<path d="M66.9382 51.1093C66.9382 47.6778 64.1561 44.8963 60.7252 44.8963C57.2937 44.8963 54.5122 47.6778 54.5122 51.1093V53.3283C54.5122 56.7598 57.2937 59.5413 60.7252 59.5413C64.1561 59.5413 66.9382 56.7598 66.9382 53.3283V51.1093Z" fill="#FECCC1"/>
<path d="M60.7247 44.8963C60.2938 44.8963 59.8732 44.9404 59.4675 45.0239C62.2959 45.6053 64.4228 48.1087 64.4228 51.1093V53.3283C64.4228 56.3289 62.2959 58.8323 59.4675 59.4137C59.8732 59.4972 60.2938 59.5413 60.7247 59.5413C64.1562 59.5413 66.9377 56.7598 66.9377 53.3283V51.1093C66.9382 47.6784 64.1562 44.8963 60.7247 44.8963Z" fill="#F9B3A7"/>
<path d="M33.1627 51.9974L30.9912 51.2432V51.2575L25.9615 59.9854L20.9318 51.2575L20.9301 51.2438L18.7603 51.9974C15.1898 53.2368 12.7957 56.6019 12.7957 60.3819V64.7186H39.1274V60.3819C39.1274 56.6019 36.7333 53.2368 33.1627 51.9974Z" fill="#A0D468"/>
<path d="M33.1627 51.9974L32.3336 51.709C34.5205 53.3552 35.8726 55.961 35.8726 58.802V64.7192H39.1273V60.3819C39.1273 56.6019 36.7332 53.2368 33.1627 51.9974Z" fill="#7BB43D"/>
<path d="M20.9318 51.2575L25.9615 59.9853L30.9912 51.2575V51.2432L28.4763 50.37H23.4467L20.9301 51.2438L20.9318 51.2575Z" fill="#DDF5FF"/>
<path d="M32.1745 41.938C32.1745 38.5065 29.393 35.725 25.9615 35.725C22.53 35.725 19.7485 38.5065 19.7485 41.938V44.157C19.7485 47.588 22.53 50.37 25.9615 50.37C29.393 50.37 32.1745 47.588 32.1745 44.157V41.938Z" fill="#FECCC1"/>
<path d="M25.9615 35.725C25.5306 35.725 25.11 35.7691 24.7043 35.8526C27.5328 36.434 29.6596 38.9374 29.6596 41.938V44.157C29.6596 47.1577 27.5328 49.6611 24.7043 50.2424C25.11 50.326 25.5306 50.37 25.9615 50.37C29.393 50.37 32.1745 47.588 32.1745 44.157V41.938C32.1745 38.5065 29.393 35.725 25.9615 35.725Z" fill="#F9B3A7"/>
<path d="M38.6833 1.1095H7.02666C3.7588 1.1095 1.1095 3.7588 1.1095 7.02666V22.411C1.1095 25.6794 3.7588 28.3281 7.02666 28.3281H10.2808L17.6777 35.725V28.3281H38.6833C41.9512 28.3281 44.6005 25.6794 44.6005 22.411V7.02666C44.6005 3.7588 41.9512 1.1095 38.6833 1.1095Z" fill="#8DB0FF"/>
<path d="M38.6833 1.1095H7.02666C3.7588 1.1095 1.1095 3.7588 1.1095 7.02666V22.411C1.1095 25.6794 3.7588 28.3281 7.02666 28.3281H10.2808L17.6777 35.725V28.3281H38.6833C41.9512 28.3281 44.6005 25.6794 44.6005 22.411V7.02666C44.6005 3.7588 41.9512 1.1095 38.6833 1.1095Z" fill="#8DB0FF"/>
<path d="M7.02667 25.3698C3.7588 25.3698 1.1095 22.7205 1.1095 19.4527V22.411C1.1095 25.6794 3.7588 28.3281 7.02667 28.3281H10.2808L17.6777 35.725V32.7662L11.1477 26.2362C10.5926 25.6817 9.8402 25.3698 9.0557 25.3698H7.02667Z" fill="#669AF7"/>
<path d="M38.6833 1.1095H34.9851C37.0903 1.1095 38.9391 2.20927 39.9874 3.86523C40.6116 4.85114 39.9055 6.13917 38.7382 6.13917H36.3167C31.4146 6.13917 27.4406 10.1126 27.4406 15.0146V23.8907C27.4406 24.7078 26.7786 25.3698 25.9615 25.3698H20.636C19.0018 25.3698 17.6777 26.6945 17.6777 28.3287H38.6833C41.9512 28.3287 44.6005 25.6794 44.6005 22.4115V7.02666C44.6005 3.7588 41.9512 1.1095 38.6833 1.1095Z" fill="#669AF7"/>
<path d="M36.3167 9.09747H67.9734C71.2412 9.09747 73.8905 11.7468 73.8905 15.0146V30.3995C73.8905 33.6674 71.2412 36.3167 67.9734 36.3167H52.7367V43.713L45.3404 36.3167H36.3167C33.0488 36.3167 30.3995 33.6674 30.3995 30.3995V15.0146C30.3995 11.7468 33.0488 9.09747 36.3167 9.09747Z" fill="#FF3D7F"/>
<path d="M36.3167 33.062C33.0488 33.062 30.3995 30.4127 30.3995 27.1448V30.3995C30.3995 33.6674 33.0488 36.3167 36.3167 36.3167H45.3404L52.7367 43.713V40.4583L46.2067 33.9289C45.6522 33.3739 44.8998 33.062 44.1147 33.062H36.3167Z" fill="#E91E63"/>
<path d="M67.9734 9.09747H64.2752C67.5431 9.09747 70.1924 11.7468 70.1924 15.0146V30.1037C70.1924 31.7373 68.8677 33.062 67.2335 33.062H55.6956C54.0613 33.062 52.7367 34.3866 52.7367 36.0208V36.3167H67.9734C71.2412 36.3167 73.8905 33.6674 73.8905 30.3995V15.0146C73.8905 11.7468 71.2412 9.09747 67.9734 9.09747Z" fill="#E91E63"/>
<path d="M68.2898 60.1204L65.2622 59.0693C66.9571 57.7269 68.0471 55.6532 68.0471 53.3283V51.1093C68.0471 47.0719 64.7621 43.7868 60.7246 43.7868C56.6872 43.7868 53.4021 47.0719 53.4021 51.1093V53.3283C53.4021 55.6532 54.4928 57.7269 56.1876 59.0693L53.1595 60.1204C51.2175 60.795 49.585 62.0322 48.4159 63.6097H40.2369V60.3819C40.2369 56.1333 37.5401 52.3424 33.5266 50.9491L30.4985 49.898C32.1934 48.5556 33.284 46.4819 33.284 44.1571V41.938C33.284 37.9 29.999 34.6155 25.9615 34.6155C21.924 34.6155 18.639 37.9006 18.639 41.938V44.1571C18.639 46.4819 19.7296 48.5556 21.4239 49.898L18.3964 50.9491C14.3829 52.3424 11.6861 56.1333 11.6861 60.3819V63.6097H1.1095C0.496674 63.6097 0 64.1064 0 64.7192V73.8905C0 74.5034 0.496674 75 1.1095 75H47.2635C47.3133 75 47.3625 74.9954 47.4112 74.9892C47.4598 74.9954 47.509 75 47.5594 75H73.8905C74.5033 75 75 74.5034 75 73.8905V69.5532C75 65.3052 72.3038 61.5143 68.2898 60.1204ZM55.6211 51.1093C55.6211 48.2952 57.9105 46.0058 60.7246 46.0058C63.5387 46.0058 65.8281 48.2952 65.8281 51.1093V53.3283C65.8281 56.1425 63.5387 58.4318 60.7246 58.4318C57.9105 58.4318 55.6211 56.1425 55.6211 53.3283V51.1093ZM20.858 41.938C20.858 39.1239 23.1474 36.8345 25.9615 36.8345C28.7756 36.8345 31.065 39.1239 31.065 41.938V44.1571C31.065 46.9712 28.7756 49.2605 25.9615 49.2605C23.1474 49.2605 20.858 46.9712 20.858 44.1571V41.938ZM28.2892 51.4796L29.3673 51.8538L25.9615 57.7629L22.5557 51.8538L23.6338 51.4796H28.2892ZM13.9051 60.3819C13.9051 57.0774 16.0028 54.1289 19.1242 53.0451L20.422 52.5948L25.0002 60.5393C25.1982 60.8832 25.565 61.0949 25.9615 61.0949C26.358 61.0949 26.7248 60.8832 26.9228 60.5393L31.501 52.5948L32.7988 53.0451C35.9201 54.1289 38.0173 57.0774 38.0173 60.3819V63.6097H13.9051V60.3819ZM2.21901 65.8287H47.1725C46.7045 66.9897 46.4499 68.2497 46.4499 69.5532V72.781H2.21901V65.8287ZM72.781 72.781H48.6689V69.5532C48.6689 66.2487 50.766 63.3007 53.8874 62.2164L58.3969 60.6509H63.0524L67.5619 62.2164C70.6839 63.3007 72.781 66.2487 72.781 69.5532V72.781Z" fill="#313F65"/>
<path d="M67.9733 7.98798H56.7032C56.0904 7.98798 55.5937 8.48522 55.5937 9.09748C55.5937 9.71031 56.0904 10.207 56.7032 10.207H67.9733C70.6244 10.207 72.781 12.3636 72.781 15.0152V30.3995C72.781 33.0505 70.6244 35.2072 67.9733 35.2072H52.7367C52.1238 35.2072 51.6272 35.7038 51.6272 36.3167V41.0351L46.1248 35.5322C45.9166 35.3239 45.6345 35.2072 45.3403 35.2072H36.3167C33.6657 35.2072 31.5084 33.0505 31.5084 30.3995V15.0146C31.5084 12.3636 33.6651 10.207 36.3167 10.207H51.5162C52.129 10.207 52.6257 9.71031 52.6257 9.09748C52.6257 8.48465 52.129 7.98798 51.5162 7.98798H45.71V7.02667C45.71 3.15228 42.5577 0 38.6833 0H7.02667C3.15228 0 0 3.15228 0 7.02667V9.47971C0 10.0925 0.496674 10.5892 1.1095 10.5892C1.72234 10.5892 2.21901 10.0925 2.21901 9.47971V7.02667C2.21901 4.37565 4.37565 2.21901 7.02667 2.21901H38.6833C41.3343 2.21901 43.491 4.37565 43.491 7.02667V7.98798H36.3167C32.4423 7.98798 29.29 11.1403 29.29 15.0146V27.2186H17.6777C17.0649 27.2186 16.5682 27.7153 16.5682 28.3281V33.0465L11.0659 27.5436C10.8576 27.3354 10.5755 27.2186 10.2814 27.2186H7.02667C4.37565 27.2186 2.21901 25.062 2.21901 22.411V14.6387C2.21901 14.0259 1.72234 13.5292 1.1095 13.5292C0.496674 13.5292 0 14.0259 0 14.6387V22.411C0 26.2859 3.15228 29.4376 7.02667 29.4376H9.82132L16.8932 36.5095C17.1055 36.7218 17.3893 36.8345 17.6777 36.834C17.8207 36.834 17.9649 36.8065 18.1023 36.7498C18.5165 36.5782 18.7872 36.1736 18.7872 35.725V29.4376H29.29V30.3995C29.29 34.2739 32.4423 37.4256 36.3167 37.4256H44.8809L51.9522 44.4975C52.1645 44.7098 52.4483 44.8225 52.7367 44.8225C52.8797 44.8225 53.0239 44.795 53.1612 44.7378C53.5755 44.5662 53.8462 44.1616 53.8462 43.713V37.4256H67.9733C71.8477 37.4256 75 34.2739 75 30.3995V15.0146C75 11.1403 71.8477 7.98798 67.9733 7.98798Z" fill="#313F65"/>
</g>
<defs>
<clipPath id="clip0">
<rect width="75" height="75" fill="white"/>
</clipPath>
</defs>
</svg>
