<svg width="149" height="149" viewBox="0 0 149 149" fill="none" xmlns="http://www.w3.org/2000/svg">
<g opacity="0.15">
<path d="M144.032 2.48425C144.032 3.85537 145.145 4.9685 146.516 4.9685C147.887 4.9685 149 3.85537 149 2.48425C149 1.11312 147.887 0 146.516 0C145.145 0 144.032 1.11312 144.032 2.48425Z" fill="black"/>
<path d="M125.942 2.48425C125.942 3.85537 127.055 4.9685 128.426 4.9685C129.797 4.9685 130.91 3.85537 130.91 2.48425C130.91 1.11312 129.797 0 128.426 0C127.055 0 125.942 1.11312 125.942 2.48425Z" fill="black"/>
<path d="M107.852 2.48425C107.852 3.85537 108.965 4.9685 110.336 4.9685C111.707 4.9685 112.82 3.85537 112.82 2.48425C112.82 1.11312 111.707 0 110.336 0C108.961 0 107.852 1.11312 107.852 2.48425Z" fill="black"/>
<path d="M89.757 2.48425C89.757 3.85537 90.871 4.9685 92.2431 4.9685C93.6153 4.9685 94.7255 3.85537 94.7255 2.48425C94.7255 1.11312 93.6153 0 92.2431 0C90.8673 0 89.757 1.11312 89.757 2.48425Z" fill="black"/>
<path d="M71.6672 2.48425C71.6672 3.85537 72.7766 4.9685 74.1515 4.9685C75.5226 4.9685 76.6357 3.85537 76.6357 2.48425C76.6357 1.11312 75.5226 0 74.1515 0C72.7803 0 71.6672 1.11312 71.6672 2.48425Z" fill="black"/>
<path d="M53.5775 2.48425C53.5775 3.85537 54.6906 4.9685 56.0617 4.9685C57.4329 4.9685 58.546 3.85537 58.546 2.48425C58.546 1.11312 57.4329 0 56.0617 0C54.6906 0 53.5775 1.11312 53.5775 2.48425Z" fill="black"/>
<path d="M35.7183 2.48425C35.7183 3.85537 36.8314 4.9685 38.2026 4.9685C39.5737 4.9685 40.6868 3.85537 40.6868 2.48425C40.6868 1.11312 39.5737 0 38.2026 0C36.8314 0 35.7183 1.11312 35.7183 2.48425Z" fill="black"/>
<path d="M17.8591 2.48425C17.8591 3.85537 18.9722 4.9685 20.3433 4.9685C21.7145 4.9685 22.8276 3.85537 22.8276 2.48425C22.8276 1.11312 21.7145 0 20.3433 0C18.9722 0 17.8591 1.11312 17.8591 2.48425Z" fill="black"/>
<path d="M-3.57628e-05 2.48425C-3.57628e-05 3.85537 1.11308 4.9685 2.48421 4.9685C3.85534 4.9685 4.96846 3.85537 4.96846 2.48425C4.96846 1.11312 3.85534 0 2.48421 0C1.11308 0 -3.57628e-05 1.11312 -3.57628e-05 2.48425Z" fill="black"/>
<path d="M144.032 20.5741C144.032 21.9452 145.145 23.0583 146.516 23.0583C147.887 23.0583 149 21.9452 149 20.5741C149 19.203 147.887 18.0898 146.516 18.0898C145.145 18.0898 144.032 19.203 144.032 20.5741Z" fill="black"/>
<path d="M125.942 20.5741C125.942 21.9452 127.055 23.0583 128.426 23.0583C129.797 23.0583 130.91 21.9452 130.91 20.5741C130.91 19.203 129.797 18.0898 128.426 18.0898C127.055 18.0898 125.942 19.203 125.942 20.5741Z" fill="black"/>
<path d="M107.852 20.5741C107.852 21.9452 108.965 23.0583 110.336 23.0583C111.707 23.0583 112.82 21.9452 112.82 20.5741C112.82 19.203 111.707 18.0898 110.336 18.0898C108.961 18.0898 107.852 19.203 107.852 20.5741Z" fill="black"/>
<path d="M89.757 20.5741C89.757 21.9452 90.871 23.0583 92.2431 23.0583C93.6153 23.0583 94.7255 21.9452 94.7255 20.5741C94.7255 19.203 93.6153 18.0898 92.2431 18.0898C90.8673 18.0898 89.757 19.203 89.757 20.5741Z" fill="black"/>
<path d="M71.6672 20.5741C71.6672 21.9452 72.7766 23.0583 74.1515 23.0583C75.5226 23.0583 76.6357 21.9452 76.6357 20.5741C76.6357 19.203 75.5226 18.0898 74.1515 18.0898C72.7803 18.0898 71.6672 19.203 71.6672 20.5741Z" fill="black"/>
<path d="M53.5775 20.5741C53.5775 21.9452 54.6906 23.0583 56.0617 23.0583C57.4329 23.0583 58.546 21.9452 58.546 20.5741C58.546 19.203 57.4329 18.0898 56.0617 18.0898C54.6906 18.0898 53.5775 19.203 53.5775 20.5741Z" fill="black"/>
<path d="M35.7183 20.5741C35.7183 21.9452 36.8314 23.0583 38.2026 23.0583C39.5737 23.0583 40.6868 21.9452 40.6868 20.5741C40.6868 19.203 39.5737 18.0898 38.2026 18.0898C36.8314 18.0898 35.7183 19.203 35.7183 20.5741Z" fill="black"/>
<path d="M17.8591 20.5741C17.8591 21.9452 18.9722 23.0583 20.3433 23.0583C21.7145 23.0583 22.8276 21.9452 22.8276 20.5741C22.8276 19.203 21.7145 18.0898 20.3433 18.0898C18.9722 18.0898 17.8591 19.203 17.8591 20.5741Z" fill="black"/>
<path d="M-3.57628e-05 20.5741C-3.57628e-05 21.9452 1.11308 23.0583 2.48421 23.0583C3.85534 23.0583 4.96846 21.9452 4.96846 20.5741C4.96846 19.203 3.85534 18.0898 2.48421 18.0898C1.11308 18.0898 -3.57628e-05 19.203 -3.57628e-05 20.5741Z" fill="black"/>
<path d="M144.032 38.6638C144.032 40.0349 145.145 41.1481 146.516 41.1481C147.887 41.1481 149 40.0349 149 38.6638C149 37.2927 147.887 36.1796 146.516 36.1796C145.145 36.1796 144.032 37.2927 144.032 38.6638Z" fill="black"/>
<path d="M125.942 38.6638C125.942 40.0349 127.055 41.1481 128.426 41.1481C129.797 41.1481 130.91 40.0349 130.91 38.6638C130.91 37.2927 129.797 36.1796 128.426 36.1796C127.055 36.1796 125.942 37.2927 125.942 38.6638Z" fill="black"/>
<path d="M107.852 38.6638C107.852 40.0349 108.965 41.1481 110.336 41.1481C111.707 41.1481 112.82 40.0349 112.82 38.6638C112.82 37.2927 111.707 36.1796 110.336 36.1796C108.961 36.1796 107.852 37.2927 107.852 38.6638Z" fill="black"/>
<path d="M89.757 38.6638C89.757 40.0349 90.871 41.1481 92.2431 41.1481C93.6153 41.1481 94.7255 40.0349 94.7255 38.6638C94.7255 37.2927 93.6153 36.1796 92.2431 36.1796C90.8673 36.1796 89.757 37.2927 89.757 38.6638Z" fill="black"/>
<path d="M71.6672 38.6638C71.6672 40.0349 72.7766 41.1481 74.1515 41.1481C75.5226 41.1481 76.6357 40.0349 76.6357 38.6638C76.6357 37.2927 75.5226 36.1796 74.1515 36.1796C72.7803 36.1796 71.6672 37.2927 71.6672 38.6638Z" fill="black"/>
<path d="M53.5775 38.6638C53.5775 40.0349 54.6906 41.1481 56.0617 41.1481C57.4329 41.1481 58.546 40.0349 58.546 38.6638C58.546 37.2927 57.4329 36.1796 56.0617 36.1796C54.6906 36.1796 53.5775 37.2927 53.5775 38.6638Z" fill="black"/>
<path d="M35.7183 38.6638C35.7183 40.0349 36.8314 41.1481 38.2026 41.1481C39.5737 41.1481 40.6868 40.0349 40.6868 38.6638C40.6868 37.2927 39.5737 36.1796 38.2026 36.1796C36.8314 36.1796 35.7183 37.2927 35.7183 38.6638Z" fill="black"/>
<path d="M17.8591 38.6638C17.8591 40.0349 18.9722 41.1481 20.3433 41.1481C21.7145 41.1481 22.8276 40.0349 22.8276 38.6638C22.8276 37.2927 21.7145 36.1796 20.3433 36.1796C18.9722 36.1796 17.8591 37.2927 17.8591 38.6638Z" fill="black"/>
<path d="M-3.57628e-05 38.6638C-3.57628e-05 40.0349 1.11308 41.1481 2.48421 41.1481C3.85534 41.1481 4.96846 40.0349 4.96846 38.6638C4.96846 37.2927 3.85534 36.1796 2.48421 36.1796C1.11308 36.1796 -3.57628e-05 37.2927 -3.57628e-05 38.6638Z" fill="black"/>
<path d="M144.032 56.7537C144.032 58.1248 145.145 59.238 146.516 59.238C147.887 59.238 149 58.1248 149 56.7537C149 55.3826 147.887 54.2695 146.516 54.2695C145.145 54.2732 144.032 55.3826 144.032 56.7537Z" fill="black"/>
<path d="M125.942 56.7537C125.942 58.1248 127.055 59.238 128.426 59.238C129.797 59.238 130.91 58.1248 130.91 56.7537C130.91 55.3826 129.797 54.2695 128.426 54.2695C127.055 54.2732 125.942 55.3826 125.942 56.7537Z" fill="black"/>
<path d="M107.852 56.7537C107.852 58.1248 108.965 59.238 110.336 59.238C111.707 59.238 112.82 58.1248 112.82 56.7537C112.82 55.3826 111.707 54.2695 110.336 54.2695C108.961 54.2732 107.852 55.3826 107.852 56.7537Z" fill="black"/>
<path d="M89.757 56.7537C89.757 58.1248 90.871 59.238 92.2431 59.238C93.6153 59.238 94.7255 58.1248 94.7255 56.7537C94.7255 55.3826 93.6153 54.2695 92.2431 54.2695C90.8673 54.2732 89.757 55.3826 89.757 56.7537Z" fill="black"/>
<path d="M71.6672 56.7537C71.6672 58.1248 72.7766 59.238 74.1515 59.238C75.5226 59.238 76.6357 58.1248 76.6357 56.7537C76.6357 55.3826 75.5226 54.2695 74.1515 54.2695C72.7803 54.2732 71.6672 55.3826 71.6672 56.7537Z" fill="black"/>
<path d="M53.5775 56.7537C53.5775 58.1248 54.6906 59.238 56.0617 59.238C57.4329 59.238 58.546 58.1248 58.546 56.7537C58.546 55.3826 57.4329 54.2695 56.0617 54.2695C54.6906 54.2732 53.5775 55.3826 53.5775 56.7537Z" fill="black"/>
<path d="M35.7183 56.7537C35.7183 58.1248 36.8314 59.238 38.2026 59.238C39.5737 59.238 40.6868 58.1248 40.6868 56.7537C40.6868 55.3826 39.5737 54.2695 38.2026 54.2695C36.8314 54.2732 35.7183 55.3826 35.7183 56.7537Z" fill="black"/>
<path d="M17.8591 56.7537C17.8591 58.1248 18.9722 59.238 20.3433 59.238C21.7145 59.238 22.8276 58.1248 22.8276 56.7537C22.8276 55.3826 21.7145 54.2695 20.3433 54.2695C18.9722 54.2732 17.8591 55.3826 17.8591 56.7537Z" fill="black"/>
<path d="M-3.57628e-05 56.7537C-3.57628e-05 58.1248 1.11308 59.238 2.48421 59.238C3.85534 59.238 4.96846 58.1248 4.96846 56.7537C4.96846 55.3826 3.85534 54.2695 2.48421 54.2695C1.11308 54.2732 -3.57628e-05 55.3826 -3.57628e-05 56.7537Z" fill="black"/>
<path d="M144.032 74.8485C144.032 76.2196 145.145 77.3328 146.516 77.3328C147.887 77.3328 149 76.2196 149 74.8485C149 73.4774 147.887 72.3643 146.516 72.3643C145.145 72.3643 144.032 73.4774 144.032 74.8485Z" fill="black"/>
<path d="M125.942 74.8485C125.942 76.2196 127.055 77.3328 128.426 77.3328C129.797 77.3328 130.91 76.2196 130.91 74.8485C130.91 73.4774 129.797 72.3643 128.426 72.3643C127.055 72.3643 125.942 73.4774 125.942 74.8485Z" fill="black"/>
<path d="M107.852 74.8485C107.852 76.2196 108.965 77.3328 110.336 77.3328C111.707 77.3328 112.82 76.2196 112.82 74.8485C112.82 73.4774 111.707 72.3643 110.336 72.3643C108.961 72.3643 107.852 73.4774 107.852 74.8485Z" fill="black"/>
<path d="M89.757 74.8485C89.757 76.2196 90.871 77.3328 92.2431 77.3328C93.6153 77.3328 94.7255 76.2196 94.7255 74.8485C94.7255 73.4774 93.6153 72.3643 92.2431 72.3643C90.8673 72.3643 89.757 73.4774 89.757 74.8485Z" fill="black"/>
<path d="M71.6672 74.8485C71.6672 76.2196 72.7766 77.3328 74.1515 77.3328C75.5226 77.3328 76.6357 76.2196 76.6357 74.8485C76.6357 73.4774 75.5226 72.3643 74.1515 72.3643C72.7803 72.3643 71.6672 73.4774 71.6672 74.8485Z" fill="black"/>
<path d="M53.5775 74.8485C53.5775 76.2196 54.6906 77.3328 56.0617 77.3328C57.4329 77.3328 58.546 76.2196 58.546 74.8485C58.546 73.4774 57.4329 72.3643 56.0617 72.3643C54.6906 72.3643 53.5775 73.4774 53.5775 74.8485Z" fill="black"/>
<path d="M35.7183 74.8485C35.7183 76.2196 36.8314 77.3328 38.2026 77.3328C39.5737 77.3328 40.6868 76.2196 40.6868 74.8485C40.6868 73.4774 39.5737 72.3643 38.2026 72.3643C36.8314 72.3643 35.7183 73.4774 35.7183 74.8485Z" fill="black"/>
<path d="M17.8591 74.8485C17.8591 76.2196 18.9722 77.3328 20.3433 77.3328C21.7145 77.3328 22.8276 76.2196 22.8276 74.8485C22.8276 73.4774 21.7145 72.3643 20.3433 72.3643C18.9722 72.3643 17.8591 73.4774 17.8591 74.8485Z" fill="black"/>
<path d="M-3.57628e-05 74.8485C-3.57628e-05 76.2196 1.11308 77.3328 2.48421 77.3328C3.85534 77.3328 4.96846 76.2196 4.96846 74.8485C4.96846 73.4774 3.85534 72.3643 2.48421 72.3643C1.11308 72.3643 -3.57628e-05 73.4774 -3.57628e-05 74.8485Z" fill="black"/>
<path d="M144.032 92.9381C144.032 94.3092 145.145 95.4224 146.516 95.4224C147.887 95.4224 149 94.3092 149 92.9381C149 91.567 147.887 90.4539 146.516 90.4539C145.145 90.4539 144.032 91.567 144.032 92.9381Z" fill="black"/>
<path d="M144.032 110.797C144.032 112.168 145.145 113.282 146.516 113.282C147.887 113.282 149 112.168 149 110.797C149 109.426 147.887 108.313 146.516 108.313C145.145 108.313 144.032 109.426 144.032 110.797Z" fill="black"/>
<path d="M144.032 128.657C144.032 130.028 145.145 131.141 146.516 131.141C147.887 131.141 149 130.028 149 128.657C149 127.286 147.887 126.172 146.516 126.172C145.145 126.172 144.032 127.286 144.032 128.657Z" fill="black"/>
<path d="M144.032 146.516C144.032 147.887 145.145 149 146.516 149C147.887 149 149 147.887 149 146.516C149 145.145 147.887 144.032 146.516 144.032C145.145 144.032 144.032 145.145 144.032 146.516Z" fill="black"/>
<path d="M125.942 92.9381C125.942 94.3092 127.055 95.4224 128.426 95.4224C129.797 95.4224 130.91 94.3092 130.91 92.9381C130.91 91.567 129.797 90.4539 128.426 90.4539C127.055 90.4539 125.942 91.567 125.942 92.9381Z" fill="black"/>
<path d="M125.942 110.797C125.942 112.168 127.055 113.282 128.426 113.282C129.797 113.282 130.91 112.168 130.91 110.797C130.91 109.426 129.797 108.313 128.426 108.313C127.055 108.313 125.942 109.426 125.942 110.797Z" fill="black"/>
<path d="M125.942 128.657C125.942 130.028 127.055 131.141 128.426 131.141C129.797 131.141 130.91 130.028 130.91 128.657C130.91 127.286 129.797 126.172 128.426 126.172C127.055 126.172 125.942 127.286 125.942 128.657Z" fill="black"/>
<path d="M125.942 146.516C125.942 147.887 127.055 149 128.426 149C129.797 149 130.91 147.887 130.91 146.516C130.91 145.145 129.797 144.032 128.426 144.032C127.055 144.032 125.942 145.145 125.942 146.516Z" fill="black"/>
<path d="M107.852 92.9381C107.852 94.3092 108.965 95.4224 110.336 95.4224C111.707 95.4224 112.82 94.3092 112.82 92.9381C112.82 91.567 111.707 90.4539 110.336 90.4539C108.961 90.4539 107.852 91.567 107.852 92.9381Z" fill="black"/>
<path d="M107.852 110.797C107.852 112.168 108.965 113.282 110.336 113.282C111.707 113.282 112.82 112.168 112.82 110.797C112.82 109.426 111.707 108.313 110.336 108.313C108.961 108.313 107.852 109.426 107.852 110.797Z" fill="black"/>
<path d="M107.852 128.657C107.852 130.028 108.965 131.141 110.336 131.141C111.707 131.141 112.82 130.028 112.82 128.657C112.82 127.286 111.707 126.172 110.336 126.172C108.961 126.172 107.852 127.286 107.852 128.657Z" fill="black"/>
<path d="M107.852 146.516C107.852 147.887 108.965 149 110.336 149C111.707 149 112.82 147.887 112.82 146.516C112.82 145.145 111.707 144.032 110.336 144.032C108.961 144.032 107.852 145.145 107.852 146.516Z" fill="black"/>
<path d="M89.757 92.9381C89.757 94.3092 90.871 95.4224 92.2431 95.4224C93.6153 95.4224 94.7255 94.3092 94.7255 92.9381C94.7255 91.567 93.6153 90.4539 92.2431 90.4539C90.8673 90.4539 89.757 91.567 89.757 92.9381Z" fill="black"/>
<path d="M89.757 110.797C89.757 112.168 90.871 113.282 92.2431 113.282C93.6153 113.282 94.7255 112.168 94.7255 110.797C94.7255 109.426 93.6153 108.313 92.2431 108.313C90.8673 108.313 89.757 109.426 89.757 110.797Z" fill="black"/>
<path d="M89.757 128.657C89.757 130.028 90.871 131.141 92.2431 131.141C93.6153 131.141 94.7255 130.028 94.7255 128.657C94.7255 127.286 93.6153 126.172 92.2431 126.172C90.8673 126.172 89.757 127.286 89.757 128.657Z" fill="black"/>
<path d="M89.757 146.516C89.757 147.887 90.871 149 92.2431 149C93.6153 149 94.7255 147.887 94.7255 146.516C94.7255 145.145 93.6153 144.032 92.2431 144.032C90.8673 144.032 89.757 145.145 89.757 146.516Z" fill="black"/>
<path d="M71.6672 92.9381C71.6672 94.3092 72.7766 95.4224 74.1515 95.4224C75.5226 95.4224 76.6357 94.3092 76.6357 92.9381C76.6357 91.567 75.5226 90.4539 74.1515 90.4539C72.7803 90.4539 71.6672 91.567 71.6672 92.9381Z" fill="black"/>
<path d="M71.6672 110.797C71.6672 112.168 72.7766 113.282 74.1515 113.282C75.5226 113.282 76.6357 112.168 76.6357 110.797C76.6357 109.426 75.5226 108.313 74.1515 108.313C72.7803 108.313 71.6672 109.426 71.6672 110.797Z" fill="black"/>
<path d="M71.6672 128.657C71.6672 130.028 72.7766 131.141 74.1515 131.141C75.5226 131.141 76.6357 130.028 76.6357 128.657C76.6357 127.286 75.5226 126.172 74.1515 126.172C72.7803 126.172 71.6672 127.286 71.6672 128.657Z" fill="black"/>
<path d="M71.6672 146.516C71.6672 147.887 72.7766 149 74.1515 149C75.5226 149 76.6357 147.887 76.6357 146.516C76.6357 145.145 75.5226 144.032 74.1515 144.032C72.7803 144.032 71.6672 145.145 71.6672 146.516Z" fill="black"/>
<path d="M53.5775 92.9381C53.5775 94.3092 54.6906 95.4224 56.0617 95.4224C57.4329 95.4224 58.546 94.3092 58.546 92.9381C58.546 91.567 57.4329 90.4539 56.0617 90.4539C54.6906 90.4539 53.5775 91.567 53.5775 92.9381Z" fill="black"/>
<path d="M53.5775 110.797C53.5775 112.168 54.6906 113.282 56.0617 113.282C57.4329 113.282 58.546 112.168 58.546 110.797C58.546 109.426 57.4329 108.313 56.0617 108.313C54.6906 108.313 53.5775 109.426 53.5775 110.797Z" fill="black"/>
<path d="M53.5775 128.657C53.5775 130.028 54.6906 131.141 56.0617 131.141C57.4329 131.141 58.546 130.028 58.546 128.657C58.546 127.286 57.4329 126.172 56.0617 126.172C54.6906 126.172 53.5775 127.286 53.5775 128.657Z" fill="black"/>
<path d="M53.5775 146.516C53.5775 147.887 54.6906 149 56.0617 149C57.4329 149 58.546 147.887 58.546 146.516C58.546 145.145 57.4329 144.032 56.0617 144.032C54.6906 144.032 53.5775 145.145 53.5775 146.516Z" fill="black"/>
<path d="M35.7183 92.9381C35.7183 94.3092 36.8314 95.4224 38.2026 95.4224C39.5737 95.4224 40.6868 94.3092 40.6868 92.9381C40.6868 91.567 39.5737 90.4539 38.2026 90.4539C36.8314 90.4539 35.7183 91.567 35.7183 92.9381Z" fill="black"/>
<path d="M35.7183 110.797C35.7183 112.168 36.8314 113.282 38.2026 113.282C39.5737 113.282 40.6868 112.168 40.6868 110.797C40.6868 109.426 39.5737 108.313 38.2026 108.313C36.8314 108.313 35.7183 109.426 35.7183 110.797Z" fill="black"/>
<path d="M35.7183 128.657C35.7183 130.028 36.8314 131.141 38.2026 131.141C39.5737 131.141 40.6868 130.028 40.6868 128.657C40.6868 127.286 39.5737 126.172 38.2026 126.172C36.8314 126.172 35.7183 127.286 35.7183 128.657Z" fill="black"/>
<path d="M35.7183 146.516C35.7183 147.887 36.8314 149 38.2026 149C39.5737 149 40.6868 147.887 40.6868 146.516C40.6868 145.145 39.5737 144.032 38.2026 144.032C36.8314 144.032 35.7183 145.145 35.7183 146.516Z" fill="black"/>
<path d="M17.8591 92.9381C17.8591 94.3092 18.9722 95.4224 20.3433 95.4224C21.7145 95.4224 22.8276 94.3092 22.8276 92.9381C22.8276 91.567 21.7145 90.4539 20.3433 90.4539C18.9722 90.4539 17.8591 91.567 17.8591 92.9381Z" fill="black"/>
<path d="M17.8591 110.797C17.8591 112.168 18.9722 113.282 20.3433 113.282C21.7145 113.282 22.8276 112.168 22.8276 110.797C22.8276 109.426 21.7145 108.313 20.3433 108.313C18.9722 108.313 17.8591 109.426 17.8591 110.797Z" fill="black"/>
<path d="M17.8591 128.657C17.8591 130.028 18.9722 131.141 20.3433 131.141C21.7145 131.141 22.8276 130.028 22.8276 128.657C22.8276 127.286 21.7145 126.172 20.3433 126.172C18.9722 126.172 17.8591 127.286 17.8591 128.657Z" fill="black"/>
<path d="M17.8591 146.516C17.8591 147.887 18.9722 149 20.3433 149C21.7145 149 22.8276 147.887 22.8276 146.516C22.8276 145.145 21.7145 144.032 20.3433 144.032C18.9722 144.032 17.8591 145.145 17.8591 146.516Z" fill="black"/>
<path d="M-3.57628e-05 92.9381C-3.57628e-05 94.3092 1.11308 95.4224 2.48421 95.4224C3.85534 95.4224 4.96846 94.3092 4.96846 92.9381C4.96846 91.567 3.85534 90.4539 2.48421 90.4539C1.11308 90.4539 -3.57628e-05 91.567 -3.57628e-05 92.9381Z" fill="black"/>
<path d="M-3.57628e-05 110.797C-3.57628e-05 112.168 1.11308 113.282 2.48421 113.282C3.85534 113.282 4.96846 112.168 4.96846 110.797C4.96846 109.426 3.85534 108.313 2.48421 108.313C1.11308 108.313 -3.57628e-05 109.426 -3.57628e-05 110.797Z" fill="black"/>
<path d="M-3.57628e-05 128.657C-3.57628e-05 130.028 1.11308 131.141 2.48421 131.141C3.85534 131.141 4.96846 130.028 4.96846 128.657C4.96846 127.286 3.85534 126.172 2.48421 126.172C1.11308 126.172 -3.57628e-05 127.286 -3.57628e-05 128.657Z" fill="black"/>
<path d="M-3.57628e-05 146.516C-3.57628e-05 147.887 1.11308 149 2.48421 149C3.85534 149 4.96846 147.887 4.96846 146.516C4.96846 145.145 3.85534 144.032 2.48421 144.032C1.11308 144.032 -3.57628e-05 145.145 -3.57628e-05 146.516Z" fill="black"/>
</g>
</svg>
