<svg width="19" height="13" viewBox="0 0 19 13" fill="none" xmlns="http://www.w3.org/2000/svg">
<path d="M10.7832 7.73945L10.7453 7.74958C10.5881 7.79149 10.4946 7.95287 10.5365 8.11009C10.5717 8.24184 10.6908 8.32886 10.821 8.32886C10.8461 8.32886 10.8716 8.32565 10.897 8.31883L10.935 8.30871C11.0922 8.2668 11.1856 8.10542 11.1437 7.9482C11.1018 7.79101 10.9405 7.6977 10.7832 7.73945Z" fill="#313F65"/>
<path d="M18.6372 6.99731C18.5926 6.83075 18.4699 6.69361 18.3006 6.62099L16.511 5.85367C16.2968 5.76181 16.0301 5.83315 15.8905 6.0196C15.8081 6.12968 15.7804 6.2658 15.8146 6.39308L16.118 7.52159L2.6369 11.1599L2.44695 11.2107C1.66101 11.4205 0.850551 10.9545 0.640056 10.1717C0.538434 9.79364 0.59032 9.39871 0.786204 9.05944C0.966165 8.74773 1.24782 8.51712 1.58628 8.40205V10.4192C1.58628 10.582 1.71818 10.7138 1.88084 10.7138C2.04353 10.7138 2.17539 10.582 2.17539 10.4192V2.77899L8.37663 6.48482C9.07457 6.90195 9.9398 6.89889 10.6348 6.47681L16.5298 2.89672V5.08908C16.5298 5.25181 16.6617 5.38363 16.8244 5.38363C16.987 5.38363 17.1189 5.25181 17.1189 5.08908V2.37793C17.119 2.37458 17.119 2.37123 17.1189 2.36784V1.86224C17.1189 0.835384 16.2811 0 15.2514 0H3.45392C2.42414 0 1.58635 0.835421 1.58639 1.86224V2.25438C1.58635 2.25784 1.58635 2.2613 1.58639 2.26472V7.78736L1.52751 7.80456C0.995424 7.94761 0.551151 8.28855 0.276126 8.76493C0.00146648 9.24057 -0.0712612 9.79455 0.0712792 10.3247C0.28611 11.1238 0.947108 11.6873 1.7156 11.8201C1.99463 12.5316 2.67578 13 3.45392 13H15.2514C16.2812 13 17.119 12.1646 17.119 11.1378V10.1057C17.119 9.943 16.9871 9.81117 16.8244 9.81117C16.6618 9.81117 16.5299 9.94303 16.5299 10.1057V11.1378C16.5299 11.8397 15.9564 12.4109 15.2514 12.4109H3.45392C3.00717 12.4109 2.6072 12.1859 2.37707 11.8264C2.45103 11.8151 2.52511 11.7997 2.599 11.7799L2.78968 11.729L16.271 8.09059L16.4962 8.92801C16.5303 9.05514 16.6224 9.15902 16.7487 9.21317C16.963 9.30495 17.2296 9.23357 17.3691 9.04716L18.534 7.4908C18.6442 7.34356 18.6818 7.16371 18.6372 6.99731ZM2.17546 2.09271V1.86224C2.17546 1.16025 2.74894 0.589109 3.45392 0.589109H15.2513C15.9563 0.589109 16.5298 1.16025 16.5298 1.86224V2.20745L10.329 5.97333C9.82116 6.28169 9.18895 6.28402 8.67883 5.97912L2.17543 2.09271H2.17546ZM17.0048 8.55068L16.4443 6.46606L18.0498 7.15446L17.0048 8.55068Z" fill="#313F65"/>
<path d="M9.30151 8.13512L9.26354 8.14529C9.10639 8.1873 9.01308 8.34882 9.05513 8.50597C9.09036 8.63766 9.2094 8.72445 9.33948 8.72445C9.36469 8.72445 9.39031 8.7212 9.41578 8.71435L9.45374 8.70419C9.61089 8.66218 9.70421 8.50065 9.66216 8.3435C9.62015 8.18639 9.4587 8.09296 9.30151 8.13512Z" fill="#313F65"/>
<path d="M14.5815 9.31573L10.783 10.3301C10.6258 10.372 10.5324 10.5335 10.5744 10.6907C10.6096 10.8224 10.7286 10.9093 10.8588 10.9093C10.884 10.9093 10.9096 10.9061 10.935 10.8993L14.7335 9.8849C14.8907 9.84297 14.9841 9.68151 14.9421 9.52433C14.9002 9.3671 14.7386 9.27371 14.5815 9.31573Z" fill="#313F65"/>
<path d="M14.5816 6.72491L11.9226 7.43498C11.7654 7.47692 11.6721 7.63841 11.714 7.7956C11.7492 7.92732 11.8683 8.01422 11.9984 8.01422C12.0236 8.01422 12.0492 8.01098 12.0746 8.00416L14.7335 7.29408C14.8907 7.25214 14.9841 7.09066 14.9421 6.93347C14.9002 6.77628 14.7386 6.68289 14.5816 6.72491Z" fill="#313F65"/>
<path d="M9.64343 10.6341L9.60546 10.6443C9.44831 10.6863 9.355 10.8478 9.39704 11.005C9.43228 11.1367 9.55132 11.2234 9.6814 11.2234C9.70661 11.2234 9.73223 11.2202 9.7577 11.2134L9.79566 11.2032C9.95281 11.1612 10.0461 10.9997 10.0041 10.8425C9.962 10.6854 9.80051 10.592 9.64343 10.6341Z" fill="#313F65"/>
</svg>
