<svg width="252" height="251" viewBox="0 0 252 251" fill="none" xmlns="http://www.w3.org/2000/svg">
<g opacity="0.15">
<path d="M247.081 2.01741C247.081 3.13087 247.985 4.03482 249.098 4.03482C250.212 4.03482 251.116 3.13087 251.116 2.01741C251.116 0.903942 250.212 0 249.098 0C247.985 0 247.081 0.903942 247.081 2.01741Z" fill="#B95B7B"/>
<path d="M232.391 2.01741C232.391 3.13087 233.295 4.03482 234.408 4.03482C235.522 4.03482 236.426 3.13087 236.426 2.01741C236.426 0.903942 235.522 0 234.408 0C233.295 0 232.391 0.903942 232.391 2.01741Z" fill="#B95B7B"/>
<path d="M217.7 2.01741C217.7 3.13087 218.604 4.03482 219.718 4.03482C220.831 4.03482 221.735 3.13087 221.735 2.01741C221.735 0.903942 220.831 0 219.718 0C218.601 0 217.7 0.903942 217.7 2.01741Z" fill="#B95B7B"/>
<path d="M203.006 2.01741C203.006 3.13087 203.91 4.03482 205.025 4.03482C206.139 4.03482 207.041 3.13087 207.041 2.01741C207.041 0.903942 206.139 0 205.025 0C203.907 0 203.006 0.903942 203.006 2.01741Z" fill="#B95B7B"/>
<path d="M188.315 2.01741C188.315 3.13087 189.216 4.03482 190.333 4.03482C191.446 4.03482 192.35 3.13087 192.35 2.01741C192.35 0.903942 191.446 0 190.333 0C189.219 0 188.315 0.903942 188.315 2.01741Z" fill="#B95B7B"/>
<path d="M173.625 2.01741C173.625 3.13087 174.529 4.03482 175.643 4.03482C176.756 4.03482 177.66 3.13087 177.66 2.01741C177.66 0.903942 176.756 0 175.643 0C174.529 0 173.625 0.903942 173.625 2.01741Z" fill="#B95B7B"/>
<path d="M159.122 2.01741C159.122 3.13087 160.026 4.03482 161.139 4.03482C162.253 4.03482 163.157 3.13087 163.157 2.01741C163.157 0.903942 162.253 0 161.139 0C160.026 0 159.122 0.903942 159.122 2.01741Z" fill="#B95B7B"/>
<path d="M144.619 2.01741C144.619 3.13087 145.523 4.03482 146.636 4.03482C147.75 4.03482 148.654 3.13087 148.654 2.01741C148.654 0.903942 147.75 0 146.636 0C145.523 0 144.619 0.903942 144.619 2.01741Z" fill="#B95B7B"/>
<path d="M130.116 2.01741C130.116 3.13087 131.02 4.03482 132.133 4.03482C133.247 4.03482 134.151 3.13087 134.151 2.01741C134.151 0.903942 133.247 0 132.133 0C131.02 0 130.116 0.903942 130.116 2.01741Z" fill="#B95B7B"/>
<path d="M247.081 16.7078C247.081 17.8213 247.985 18.7252 249.098 18.7252C250.212 18.7252 251.116 17.8213 251.116 16.7078C251.116 15.5944 250.212 14.6904 249.098 14.6904C247.985 14.6904 247.081 15.5944 247.081 16.7078Z" fill="#B95B7B"/>
<path d="M232.391 16.7078C232.391 17.8213 233.295 18.7252 234.408 18.7252C235.522 18.7252 236.426 17.8213 236.426 16.7078C236.426 15.5944 235.522 14.6904 234.408 14.6904C233.295 14.6904 232.391 15.5944 232.391 16.7078Z" fill="#B95B7B"/>
<path d="M217.7 16.7078C217.7 17.8213 218.604 18.7252 219.718 18.7252C220.831 18.7252 221.735 17.8213 221.735 16.7078C221.735 15.5944 220.831 14.6904 219.718 14.6904C218.601 14.6904 217.7 15.5944 217.7 16.7078Z" fill="#B95B7B"/>
<path d="M203.006 16.7078C203.006 17.8213 203.91 18.7252 205.025 18.7252C206.139 18.7252 207.041 17.8213 207.041 16.7078C207.041 15.5944 206.139 14.6904 205.025 14.6904C203.907 14.6904 203.006 15.5944 203.006 16.7078Z" fill="#B95B7B"/>
<path d="M188.315 16.7078C188.315 17.8213 189.216 18.7252 190.333 18.7252C191.446 18.7252 192.35 17.8213 192.35 16.7078C192.35 15.5944 191.446 14.6904 190.333 14.6904C189.219 14.6904 188.315 15.5944 188.315 16.7078Z" fill="#B95B7B"/>
<path d="M173.625 16.7078C173.625 17.8213 174.529 18.7252 175.643 18.7252C176.756 18.7252 177.66 17.8213 177.66 16.7078C177.66 15.5944 176.756 14.6904 175.643 14.6904C174.529 14.6904 173.625 15.5944 173.625 16.7078Z" fill="#B95B7B"/>
<path d="M159.122 16.7078C159.122 17.8213 160.026 18.7252 161.139 18.7252C162.253 18.7252 163.157 17.8213 163.157 16.7078C163.157 15.5944 162.253 14.6904 161.139 14.6904C160.026 14.6904 159.122 15.5944 159.122 16.7078Z" fill="#B95B7B"/>
<path d="M144.619 16.7078C144.619 17.8213 145.523 18.7252 146.636 18.7252C147.75 18.7252 148.654 17.8213 148.654 16.7078C148.654 15.5944 147.75 14.6904 146.636 14.6904C145.523 14.6904 144.619 15.5944 144.619 16.7078Z" fill="#B95B7B"/>
<path d="M130.116 16.7078C130.116 17.8213 131.02 18.7252 132.133 18.7252C133.247 18.7252 134.151 17.8213 134.151 16.7078C134.151 15.5944 133.247 14.6904 132.133 14.6904C131.02 14.6904 130.116 15.5944 130.116 16.7078Z" fill="#B95B7B"/>
<path d="M247.081 31.3983C247.081 32.5117 247.985 33.4157 249.098 33.4157C250.212 33.4157 251.116 32.5117 251.116 31.3983C251.116 30.2848 250.212 29.3809 249.098 29.3809C247.985 29.3809 247.081 30.2848 247.081 31.3983Z" fill="#B95B7B"/>
<path d="M232.391 31.3983C232.391 32.5117 233.295 33.4157 234.408 33.4157C235.522 33.4157 236.426 32.5117 236.426 31.3983C236.426 30.2848 235.522 29.3809 234.408 29.3809C233.295 29.3809 232.391 30.2848 232.391 31.3983Z" fill="#B95B7B"/>
<path d="M217.7 31.3983C217.7 32.5117 218.604 33.4157 219.718 33.4157C220.831 33.4157 221.735 32.5117 221.735 31.3983C221.735 30.2848 220.831 29.3809 219.718 29.3809C218.601 29.3809 217.7 30.2848 217.7 31.3983Z" fill="#B95B7B"/>
<path d="M203.006 31.3983C203.006 32.5117 203.91 33.4157 205.025 33.4157C206.139 33.4157 207.041 32.5117 207.041 31.3983C207.041 30.2848 206.139 29.3809 205.025 29.3809C203.907 29.3809 203.006 30.2848 203.006 31.3983Z" fill="#B95B7B"/>
<path d="M188.315 31.3983C188.315 32.5117 189.216 33.4157 190.333 33.4157C191.446 33.4157 192.35 32.5117 192.35 31.3983C192.35 30.2848 191.446 29.3809 190.333 29.3809C189.219 29.3809 188.315 30.2848 188.315 31.3983Z" fill="#B95B7B"/>
<path d="M173.625 31.3983C173.625 32.5117 174.529 33.4157 175.643 33.4157C176.756 33.4157 177.66 32.5117 177.66 31.3983C177.66 30.2848 176.756 29.3809 175.643 29.3809C174.529 29.3809 173.625 30.2848 173.625 31.3983Z" fill="#B95B7B"/>
<path d="M159.122 31.3983C159.122 32.5117 160.026 33.4157 161.139 33.4157C162.253 33.4157 163.157 32.5117 163.157 31.3983C163.157 30.2848 162.253 29.3809 161.139 29.3809C160.026 29.3809 159.122 30.2848 159.122 31.3983Z" fill="#B95B7B"/>
<path d="M144.619 31.3983C144.619 32.5117 145.523 33.4157 146.636 33.4157C147.75 33.4157 148.654 32.5117 148.654 31.3983C148.654 30.2848 147.75 29.3809 146.636 29.3809C145.523 29.3809 144.619 30.2848 144.619 31.3983Z" fill="#B95B7B"/>
<path d="M130.116 31.3983C130.116 32.5117 131.02 33.4157 132.133 33.4157C133.247 33.4157 134.151 32.5117 134.151 31.3983C134.151 30.2848 133.247 29.3809 132.133 29.3809C131.02 29.3809 130.116 30.2848 130.116 31.3983Z" fill="#B95B7B"/>
<path d="M247.081 46.0887C247.081 47.2022 247.985 48.1061 249.098 48.1061C250.212 48.1061 251.116 47.2022 251.116 46.0887C251.116 44.9752 250.212 44.0713 249.098 44.0713C247.985 44.0743 247.081 44.9752 247.081 46.0887Z" fill="#B95B7B"/>
<path d="M232.391 46.0887C232.391 47.2022 233.295 48.1061 234.408 48.1061C235.522 48.1061 236.426 47.2022 236.426 46.0887C236.426 44.9752 235.522 44.0713 234.408 44.0713C233.295 44.0743 232.391 44.9752 232.391 46.0887Z" fill="#B95B7B"/>
<path d="M217.7 46.0887C217.7 47.2022 218.604 48.1061 219.718 48.1061C220.831 48.1061 221.735 47.2022 221.735 46.0887C221.735 44.9752 220.831 44.0713 219.718 44.0713C218.601 44.0743 217.7 44.9752 217.7 46.0887Z" fill="#B95B7B"/>
<path d="M203.006 46.0887C203.006 47.2022 203.91 48.1061 205.025 48.1061C206.139 48.1061 207.041 47.2022 207.041 46.0887C207.041 44.9752 206.139 44.0713 205.025 44.0713C203.907 44.0743 203.006 44.9752 203.006 46.0887Z" fill="#B95B7B"/>
<path d="M188.315 46.0887C188.315 47.2022 189.216 48.1061 190.333 48.1061C191.446 48.1061 192.35 47.2022 192.35 46.0887C192.35 44.9752 191.446 44.0713 190.333 44.0713C189.219 44.0743 188.315 44.9752 188.315 46.0887Z" fill="#B95B7B"/>
<path d="M173.625 46.0887C173.625 47.2022 174.529 48.1061 175.643 48.1061C176.756 48.1061 177.66 47.2022 177.66 46.0887C177.66 44.9752 176.756 44.0713 175.643 44.0713C174.529 44.0743 173.625 44.9752 173.625 46.0887Z" fill="#B95B7B"/>
<path d="M159.122 46.0887C159.122 47.2022 160.026 48.1061 161.139 48.1061C162.253 48.1061 163.157 47.2022 163.157 46.0887C163.157 44.9752 162.253 44.0713 161.139 44.0713C160.026 44.0743 159.122 44.9752 159.122 46.0887Z" fill="#B95B7B"/>
<path d="M144.619 46.0887C144.619 47.2022 145.523 48.1061 146.636 48.1061C147.75 48.1061 148.654 47.2022 148.654 46.0887C148.654 44.9752 147.75 44.0713 146.636 44.0713C145.523 44.0743 144.619 44.9752 144.619 46.0887Z" fill="#B95B7B"/>
<path d="M130.116 46.0887C130.116 47.2022 131.02 48.1061 132.133 48.1061C133.247 48.1061 134.151 47.2022 134.151 46.0887C134.151 44.9752 133.247 44.0713 132.133 44.0713C131.02 44.0743 130.116 44.9752 130.116 46.0887Z" fill="#B95B7B"/>
<path d="M247.081 60.783C247.081 61.8965 247.985 62.8004 249.098 62.8004C250.212 62.8004 251.116 61.8965 251.116 60.783C251.116 59.6696 250.212 58.7656 249.098 58.7656C247.985 58.7656 247.081 59.6696 247.081 60.783Z" fill="#B95B7B"/>
<path d="M232.391 60.783C232.391 61.8965 233.295 62.8004 234.408 62.8004C235.522 62.8004 236.426 61.8965 236.426 60.783C236.426 59.6696 235.522 58.7656 234.408 58.7656C233.295 58.7656 232.391 59.6696 232.391 60.783Z" fill="#B95B7B"/>
<path d="M217.7 60.783C217.7 61.8965 218.604 62.8004 219.718 62.8004C220.831 62.8004 221.735 61.8965 221.735 60.783C221.735 59.6696 220.831 58.7656 219.718 58.7656C218.601 58.7656 217.7 59.6696 217.7 60.783Z" fill="#B95B7B"/>
<path d="M203.006 60.783C203.006 61.8965 203.91 62.8004 205.025 62.8004C206.139 62.8004 207.041 61.8965 207.041 60.783C207.041 59.6696 206.139 58.7656 205.025 58.7656C203.907 58.7656 203.006 59.6696 203.006 60.783Z" fill="#B95B7B"/>
<path d="M188.315 60.783C188.315 61.8965 189.216 62.8004 190.333 62.8004C191.446 62.8004 192.35 61.8965 192.35 60.783C192.35 59.6696 191.446 58.7656 190.333 58.7656C189.219 58.7656 188.315 59.6696 188.315 60.783Z" fill="#B95B7B"/>
<path d="M173.625 60.783C173.625 61.8965 174.529 62.8004 175.643 62.8004C176.756 62.8004 177.66 61.8965 177.66 60.783C177.66 59.6696 176.756 58.7656 175.643 58.7656C174.529 58.7656 173.625 59.6696 173.625 60.783Z" fill="#B95B7B"/>
<path d="M159.122 60.783C159.122 61.8965 160.026 62.8004 161.139 62.8004C162.253 62.8004 163.157 61.8965 163.157 60.783C163.157 59.6696 162.253 58.7656 161.139 58.7656C160.026 58.7656 159.122 59.6696 159.122 60.783Z" fill="#B95B7B"/>
<path d="M144.619 60.783C144.619 61.8965 145.523 62.8004 146.636 62.8004C147.75 62.8004 148.654 61.8965 148.654 60.783C148.654 59.6696 147.75 58.7656 146.636 58.7656C145.523 58.7656 144.619 59.6696 144.619 60.783Z" fill="#B95B7B"/>
<path d="M130.116 60.783C130.116 61.8965 131.02 62.8004 132.133 62.8004C133.247 62.8004 134.151 61.8965 134.151 60.783C134.151 59.6696 133.247 58.7656 132.133 58.7656C131.02 58.7656 130.116 59.6696 130.116 60.783Z" fill="#B95B7B"/>
<path d="M247.081 75.4735C247.081 76.5869 247.985 77.4909 249.098 77.4909C250.212 77.4909 251.116 76.5869 251.116 75.4735C251.116 74.36 250.212 73.4561 249.098 73.4561C247.985 73.4561 247.081 74.36 247.081 75.4735Z" fill="#B95B7B"/>
<path d="M247.081 89.9764C247.081 91.0899 247.985 91.9938 249.098 91.9938C250.212 91.9938 251.116 91.0899 251.116 89.9764C251.116 88.8629 250.212 87.959 249.098 87.959C247.985 87.959 247.081 88.8629 247.081 89.9764Z" fill="#B95B7B"/>
<path d="M247.081 104.48C247.081 105.593 247.985 106.497 249.098 106.497C250.212 106.497 251.116 105.593 251.116 104.48C251.116 103.366 250.212 102.462 249.098 102.462C247.985 102.462 247.081 103.366 247.081 104.48Z" fill="#B95B7B"/>
<path d="M247.081 118.983C247.081 120.096 247.985 121 249.098 121C250.212 121 251.116 120.096 251.116 118.983C251.116 117.869 250.212 116.965 249.098 116.965C247.985 116.965 247.081 117.869 247.081 118.983Z" fill="#B95B7B"/>
<path d="M232.391 75.4735C232.391 76.5869 233.295 77.4909 234.408 77.4909C235.522 77.4909 236.426 76.5869 236.426 75.4735C236.426 74.36 235.522 73.4561 234.408 73.4561C233.295 73.4561 232.391 74.36 232.391 75.4735Z" fill="#B95B7B"/>
<path d="M232.391 89.9764C232.391 91.0899 233.295 91.9938 234.408 91.9938C235.522 91.9938 236.426 91.0899 236.426 89.9764C236.426 88.8629 235.522 87.959 234.408 87.959C233.295 87.959 232.391 88.8629 232.391 89.9764Z" fill="#B95B7B"/>
<path d="M232.391 104.48C232.391 105.593 233.295 106.497 234.408 106.497C235.522 106.497 236.426 105.593 236.426 104.48C236.426 103.366 235.522 102.462 234.408 102.462C233.295 102.462 232.391 103.366 232.391 104.48Z" fill="#B95B7B"/>
<path d="M232.391 118.983C232.391 120.096 233.295 121 234.408 121C235.522 121 236.426 120.096 236.426 118.983C236.426 117.869 235.522 116.965 234.408 116.965C233.295 116.965 232.391 117.869 232.391 118.983Z" fill="#B95B7B"/>
<path d="M217.7 75.4735C217.7 76.5869 218.604 77.4909 219.718 77.4909C220.831 77.4909 221.735 76.5869 221.735 75.4735C221.735 74.36 220.831 73.4561 219.718 73.4561C218.601 73.4561 217.7 74.36 217.7 75.4735Z" fill="#B95B7B"/>
<path d="M217.7 89.9764C217.7 91.0899 218.604 91.9938 219.718 91.9938C220.831 91.9938 221.735 91.0899 221.735 89.9764C221.735 88.8629 220.831 87.959 219.718 87.959C218.601 87.959 217.7 88.8629 217.7 89.9764Z" fill="#B95B7B"/>
<path d="M217.7 104.48C217.7 105.593 218.604 106.497 219.718 106.497C220.831 106.497 221.735 105.593 221.735 104.48C221.735 103.366 220.831 102.462 219.718 102.462C218.601 102.462 217.7 103.366 217.7 104.48Z" fill="#B95B7B"/>
<path d="M217.7 118.983C217.7 120.096 218.604 121 219.718 121C220.831 121 221.735 120.096 221.735 118.983C221.735 117.869 220.831 116.965 219.718 116.965C218.601 116.965 217.7 117.869 217.7 118.983Z" fill="#B95B7B"/>
<path d="M203.006 75.4735C203.006 76.5869 203.91 77.4909 205.025 77.4909C206.139 77.4909 207.041 76.5869 207.041 75.4735C207.041 74.36 206.139 73.4561 205.025 73.4561C203.907 73.4561 203.006 74.36 203.006 75.4735Z" fill="#B95B7B"/>
<path d="M203.006 89.9764C203.006 91.0899 203.91 91.9938 205.025 91.9938C206.139 91.9938 207.041 91.0899 207.041 89.9764C207.041 88.8629 206.139 87.959 205.025 87.959C203.907 87.959 203.006 88.8629 203.006 89.9764Z" fill="#B95B7B"/>
<path d="M203.006 104.48C203.006 105.593 203.91 106.497 205.025 106.497C206.139 106.497 207.041 105.593 207.041 104.48C207.041 103.366 206.139 102.462 205.025 102.462C203.907 102.462 203.006 103.366 203.006 104.48Z" fill="#B95B7B"/>
<path d="M203.006 118.983C203.006 120.096 203.91 121 205.025 121C206.139 121 207.041 120.096 207.041 118.983C207.041 117.869 206.139 116.965 205.025 116.965C203.907 116.965 203.006 117.869 203.006 118.983Z" fill="#B95B7B"/>
<path d="M188.315 75.4735C188.315 76.5869 189.216 77.4909 190.333 77.4909C191.446 77.4909 192.35 76.5869 192.35 75.4735C192.35 74.36 191.446 73.4561 190.333 73.4561C189.219 73.4561 188.315 74.36 188.315 75.4735Z" fill="#B95B7B"/>
<path d="M188.315 89.9764C188.315 91.0899 189.216 91.9938 190.333 91.9938C191.446 91.9938 192.35 91.0899 192.35 89.9764C192.35 88.8629 191.446 87.959 190.333 87.959C189.219 87.959 188.315 88.8629 188.315 89.9764Z" fill="#B95B7B"/>
<path d="M188.315 104.48C188.315 105.593 189.216 106.497 190.333 106.497C191.446 106.497 192.35 105.593 192.35 104.48C192.35 103.366 191.446 102.462 190.333 102.462C189.219 102.462 188.315 103.366 188.315 104.48Z" fill="#B95B7B"/>
<path d="M188.315 118.983C188.315 120.096 189.216 121 190.333 121C191.446 121 192.35 120.096 192.35 118.983C192.35 117.869 191.446 116.965 190.333 116.965C189.219 116.965 188.315 117.869 188.315 118.983Z" fill="#B95B7B"/>
<path d="M173.625 75.4735C173.625 76.5869 174.529 77.4909 175.643 77.4909C176.756 77.4909 177.66 76.5869 177.66 75.4735C177.66 74.36 176.756 73.4561 175.643 73.4561C174.529 73.4561 173.625 74.36 173.625 75.4735Z" fill="#B95B7B"/>
<path d="M173.625 89.9764C173.625 91.0899 174.529 91.9938 175.643 91.9938C176.756 91.9938 177.66 91.0899 177.66 89.9764C177.66 88.8629 176.756 87.959 175.643 87.959C174.529 87.959 173.625 88.8629 173.625 89.9764Z" fill="#B95B7B"/>
<path d="M173.625 104.48C173.625 105.593 174.529 106.497 175.643 106.497C176.756 106.497 177.66 105.593 177.66 104.48C177.66 103.366 176.756 102.462 175.643 102.462C174.529 102.462 173.625 103.366 173.625 104.48Z" fill="#B95B7B"/>
<path d="M173.625 118.983C173.625 120.096 174.529 121 175.643 121C176.756 121 177.66 120.096 177.66 118.983C177.66 117.869 176.756 116.965 175.643 116.965C174.529 116.965 173.625 117.869 173.625 118.983Z" fill="#B95B7B"/>
<path d="M159.122 75.4735C159.122 76.5869 160.026 77.4909 161.139 77.4909C162.253 77.4909 163.157 76.5869 163.157 75.4735C163.157 74.36 162.253 73.4561 161.139 73.4561C160.026 73.4561 159.122 74.36 159.122 75.4735Z" fill="#B95B7B"/>
<path d="M159.122 89.9764C159.122 91.0899 160.026 91.9938 161.139 91.9938C162.253 91.9938 163.157 91.0899 163.157 89.9764C163.157 88.8629 162.253 87.959 161.139 87.959C160.026 87.959 159.122 88.8629 159.122 89.9764Z" fill="#B95B7B"/>
<path d="M159.122 104.48C159.122 105.593 160.026 106.497 161.139 106.497C162.253 106.497 163.157 105.593 163.157 104.48C163.157 103.366 162.253 102.462 161.139 102.462C160.026 102.462 159.122 103.366 159.122 104.48Z" fill="#B95B7B"/>
<path d="M159.122 118.983C159.122 120.096 160.026 121 161.139 121C162.253 121 163.157 120.096 163.157 118.983C163.157 117.869 162.253 116.965 161.139 116.965C160.026 116.965 159.122 117.869 159.122 118.983Z" fill="#B95B7B"/>
<path d="M144.619 75.4735C144.619 76.5869 145.523 77.4909 146.636 77.4909C147.75 77.4909 148.654 76.5869 148.654 75.4735C148.654 74.36 147.75 73.4561 146.636 73.4561C145.523 73.4561 144.619 74.36 144.619 75.4735Z" fill="#B95B7B"/>
<path d="M144.619 89.9764C144.619 91.0899 145.523 91.9938 146.636 91.9938C147.75 91.9938 148.654 91.0899 148.654 89.9764C148.654 88.8629 147.75 87.959 146.636 87.959C145.523 87.959 144.619 88.8629 144.619 89.9764Z" fill="#B95B7B"/>
<path d="M144.619 104.48C144.619 105.593 145.523 106.497 146.636 106.497C147.75 106.497 148.654 105.593 148.654 104.48C148.654 103.366 147.75 102.462 146.636 102.462C145.523 102.462 144.619 103.366 144.619 104.48Z" fill="#B95B7B"/>
<path d="M144.619 118.983C144.619 120.096 145.523 121 146.636 121C147.75 121 148.654 120.096 148.654 118.983C148.654 117.869 147.75 116.965 146.636 116.965C145.523 116.965 144.619 117.869 144.619 118.983Z" fill="#B95B7B"/>
<path d="M130.116 75.4735C130.116 76.5869 131.02 77.4909 132.133 77.4909C133.247 77.4909 134.151 76.5869 134.151 75.4735C134.151 74.36 133.247 73.4561 132.133 73.4561C131.02 73.4561 130.116 74.36 130.116 75.4735Z" fill="#B95B7B"/>
<path d="M130.116 89.9764C130.116 91.0899 131.02 91.9938 132.133 91.9938C133.247 91.9938 134.151 91.0899 134.151 89.9764C134.151 88.8629 133.247 87.959 132.133 87.959C131.02 87.959 130.116 88.8629 130.116 89.9764Z" fill="#B95B7B"/>
<path d="M130.116 104.48C130.116 105.593 131.02 106.497 132.133 106.497C133.247 106.497 134.151 105.593 134.151 104.48C134.151 103.366 133.247 102.462 132.133 102.462C131.02 102.462 130.116 103.366 130.116 104.48Z" fill="#B95B7B"/>
<path d="M130.116 118.983C130.116 120.096 131.02 121 132.133 121C133.247 121 134.151 120.096 134.151 118.983C134.151 117.869 133.247 116.965 132.133 116.965C131.02 116.965 130.116 117.869 130.116 118.983Z" fill="#B95B7B"/>
</g>
<g opacity="0.15">
<path d="M247.081 132.017C247.081 133.131 247.985 134.035 249.098 134.035C250.212 134.035 251.116 133.131 251.116 132.017C251.116 130.904 250.212 130 249.098 130C247.985 130 247.081 130.904 247.081 132.017Z" fill="#B95B7B"/>
<path d="M232.391 132.017C232.391 133.131 233.295 134.035 234.408 134.035C235.522 134.035 236.426 133.131 236.426 132.017C236.426 130.904 235.522 130 234.408 130C233.295 130 232.391 130.904 232.391 132.017Z" fill="#B95B7B"/>
<path d="M217.7 132.017C217.7 133.131 218.604 134.035 219.718 134.035C220.831 134.035 221.735 133.131 221.735 132.017C221.735 130.904 220.831 130 219.718 130C218.601 130 217.7 130.904 217.7 132.017Z" fill="#B95B7B"/>
<path d="M203.006 132.017C203.006 133.131 203.91 134.035 205.025 134.035C206.139 134.035 207.041 133.131 207.041 132.017C207.041 130.904 206.139 130 205.025 130C203.907 130 203.006 130.904 203.006 132.017Z" fill="#B95B7B"/>
<path d="M188.315 132.017C188.315 133.131 189.216 134.035 190.333 134.035C191.446 134.035 192.35 133.131 192.35 132.017C192.35 130.904 191.446 130 190.333 130C189.219 130 188.315 130.904 188.315 132.017Z" fill="#B95B7B"/>
<path d="M173.625 132.017C173.625 133.131 174.529 134.035 175.643 134.035C176.756 134.035 177.66 133.131 177.66 132.017C177.66 130.904 176.756 130 175.643 130C174.529 130 173.625 130.904 173.625 132.017Z" fill="#B95B7B"/>
<path d="M159.122 132.017C159.122 133.131 160.026 134.035 161.139 134.035C162.253 134.035 163.157 133.131 163.157 132.017C163.157 130.904 162.253 130 161.139 130C160.026 130 159.122 130.904 159.122 132.017Z" fill="#B95B7B"/>
<path d="M144.619 132.017C144.619 133.131 145.523 134.035 146.636 134.035C147.75 134.035 148.654 133.131 148.654 132.017C148.654 130.904 147.75 130 146.636 130C145.523 130 144.619 130.904 144.619 132.017Z" fill="#B95B7B"/>
<path d="M130.116 132.017C130.116 133.131 131.02 134.035 132.133 134.035C133.247 134.035 134.151 133.131 134.151 132.017C134.151 130.904 133.247 130 132.133 130C131.02 130 130.116 130.904 130.116 132.017Z" fill="#B95B7B"/>
<path d="M247.081 146.708C247.081 147.821 247.985 148.725 249.098 148.725C250.212 148.725 251.116 147.821 251.116 146.708C251.116 145.594 250.212 144.69 249.098 144.69C247.985 144.69 247.081 145.594 247.081 146.708Z" fill="#B95B7B"/>
<path d="M232.391 146.708C232.391 147.821 233.295 148.725 234.408 148.725C235.522 148.725 236.426 147.821 236.426 146.708C236.426 145.594 235.522 144.69 234.408 144.69C233.295 144.69 232.391 145.594 232.391 146.708Z" fill="#B95B7B"/>
<path d="M217.7 146.708C217.7 147.821 218.604 148.725 219.718 148.725C220.831 148.725 221.735 147.821 221.735 146.708C221.735 145.594 220.831 144.69 219.718 144.69C218.601 144.69 217.7 145.594 217.7 146.708Z" fill="#B95B7B"/>
<path d="M203.006 146.708C203.006 147.821 203.91 148.725 205.025 148.725C206.139 148.725 207.041 147.821 207.041 146.708C207.041 145.594 206.139 144.69 205.025 144.69C203.907 144.69 203.006 145.594 203.006 146.708Z" fill="#B95B7B"/>
<path d="M188.315 146.708C188.315 147.821 189.216 148.725 190.333 148.725C191.446 148.725 192.35 147.821 192.35 146.708C192.35 145.594 191.446 144.69 190.333 144.69C189.219 144.69 188.315 145.594 188.315 146.708Z" fill="#B95B7B"/>
<path d="M173.625 146.708C173.625 147.821 174.529 148.725 175.643 148.725C176.756 148.725 177.66 147.821 177.66 146.708C177.66 145.594 176.756 144.69 175.643 144.69C174.529 144.69 173.625 145.594 173.625 146.708Z" fill="#B95B7B"/>
<path d="M159.122 146.708C159.122 147.821 160.026 148.725 161.139 148.725C162.253 148.725 163.157 147.821 163.157 146.708C163.157 145.594 162.253 144.69 161.139 144.69C160.026 144.69 159.122 145.594 159.122 146.708Z" fill="#B95B7B"/>
<path d="M144.619 146.708C144.619 147.821 145.523 148.725 146.636 148.725C147.75 148.725 148.654 147.821 148.654 146.708C148.654 145.594 147.75 144.69 146.636 144.69C145.523 144.69 144.619 145.594 144.619 146.708Z" fill="#B95B7B"/>
<path d="M130.116 146.708C130.116 147.821 131.02 148.725 132.133 148.725C133.247 148.725 134.151 147.821 134.151 146.708C134.151 145.594 133.247 144.69 132.133 144.69C131.02 144.69 130.116 145.594 130.116 146.708Z" fill="#B95B7B"/>
<path d="M247.081 161.398C247.081 162.512 247.985 163.416 249.098 163.416C250.212 163.416 251.116 162.512 251.116 161.398C251.116 160.285 250.212 159.381 249.098 159.381C247.985 159.381 247.081 160.285 247.081 161.398Z" fill="#B95B7B"/>
<path d="M232.391 161.398C232.391 162.512 233.295 163.416 234.408 163.416C235.522 163.416 236.426 162.512 236.426 161.398C236.426 160.285 235.522 159.381 234.408 159.381C233.295 159.381 232.391 160.285 232.391 161.398Z" fill="#B95B7B"/>
<path d="M217.7 161.398C217.7 162.512 218.604 163.416 219.718 163.416C220.831 163.416 221.735 162.512 221.735 161.398C221.735 160.285 220.831 159.381 219.718 159.381C218.601 159.381 217.7 160.285 217.7 161.398Z" fill="#B95B7B"/>
<path d="M203.006 161.398C203.006 162.512 203.91 163.416 205.025 163.416C206.139 163.416 207.041 162.512 207.041 161.398C207.041 160.285 206.139 159.381 205.025 159.381C203.907 159.381 203.006 160.285 203.006 161.398Z" fill="#B95B7B"/>
<path d="M188.315 161.398C188.315 162.512 189.216 163.416 190.333 163.416C191.446 163.416 192.35 162.512 192.35 161.398C192.35 160.285 191.446 159.381 190.333 159.381C189.219 159.381 188.315 160.285 188.315 161.398Z" fill="#B95B7B"/>
<path d="M173.625 161.398C173.625 162.512 174.529 163.416 175.643 163.416C176.756 163.416 177.66 162.512 177.66 161.398C177.66 160.285 176.756 159.381 175.643 159.381C174.529 159.381 173.625 160.285 173.625 161.398Z" fill="#B95B7B"/>
<path d="M159.122 161.398C159.122 162.512 160.026 163.416 161.139 163.416C162.253 163.416 163.157 162.512 163.157 161.398C163.157 160.285 162.253 159.381 161.139 159.381C160.026 159.381 159.122 160.285 159.122 161.398Z" fill="#B95B7B"/>
<path d="M144.619 161.398C144.619 162.512 145.523 163.416 146.636 163.416C147.75 163.416 148.654 162.512 148.654 161.398C148.654 160.285 147.75 159.381 146.636 159.381C145.523 159.381 144.619 160.285 144.619 161.398Z" fill="#B95B7B"/>
<path d="M130.116 161.398C130.116 162.512 131.02 163.416 132.133 163.416C133.247 163.416 134.151 162.512 134.151 161.398C134.151 160.285 133.247 159.381 132.133 159.381C131.02 159.381 130.116 160.285 130.116 161.398Z" fill="#B95B7B"/>
<path d="M247.081 176.089C247.081 177.202 247.985 178.106 249.098 178.106C250.212 178.106 251.116 177.202 251.116 176.089C251.116 174.975 250.212 174.071 249.098 174.071C247.985 174.074 247.081 174.975 247.081 176.089Z" fill="#B95B7B"/>
<path d="M232.391 176.089C232.391 177.202 233.295 178.106 234.408 178.106C235.522 178.106 236.426 177.202 236.426 176.089C236.426 174.975 235.522 174.071 234.408 174.071C233.295 174.074 232.391 174.975 232.391 176.089Z" fill="#B95B7B"/>
<path d="M217.7 176.089C217.7 177.202 218.604 178.106 219.718 178.106C220.831 178.106 221.735 177.202 221.735 176.089C221.735 174.975 220.831 174.071 219.718 174.071C218.601 174.074 217.7 174.975 217.7 176.089Z" fill="#B95B7B"/>
<path d="M203.006 176.089C203.006 177.202 203.91 178.106 205.025 178.106C206.139 178.106 207.041 177.202 207.041 176.089C207.041 174.975 206.139 174.071 205.025 174.071C203.907 174.074 203.006 174.975 203.006 176.089Z" fill="#B95B7B"/>
<path d="M188.315 176.089C188.315 177.202 189.216 178.106 190.333 178.106C191.446 178.106 192.35 177.202 192.35 176.089C192.35 174.975 191.446 174.071 190.333 174.071C189.219 174.074 188.315 174.975 188.315 176.089Z" fill="#B95B7B"/>
<path d="M173.625 176.089C173.625 177.202 174.529 178.106 175.643 178.106C176.756 178.106 177.66 177.202 177.66 176.089C177.66 174.975 176.756 174.071 175.643 174.071C174.529 174.074 173.625 174.975 173.625 176.089Z" fill="#B95B7B"/>
<path d="M159.122 176.089C159.122 177.202 160.026 178.106 161.139 178.106C162.253 178.106 163.157 177.202 163.157 176.089C163.157 174.975 162.253 174.071 161.139 174.071C160.026 174.074 159.122 174.975 159.122 176.089Z" fill="#B95B7B"/>
<path d="M144.619 176.089C144.619 177.202 145.523 178.106 146.636 178.106C147.75 178.106 148.654 177.202 148.654 176.089C148.654 174.975 147.75 174.071 146.636 174.071C145.523 174.074 144.619 174.975 144.619 176.089Z" fill="#B95B7B"/>
<path d="M130.116 176.089C130.116 177.202 131.02 178.106 132.133 178.106C133.247 178.106 134.151 177.202 134.151 176.089C134.151 174.975 133.247 174.071 132.133 174.071C131.02 174.074 130.116 174.975 130.116 176.089Z" fill="#B95B7B"/>
<path d="M247.081 190.783C247.081 191.897 247.985 192.8 249.098 192.8C250.212 192.8 251.116 191.897 251.116 190.783C251.116 189.67 250.212 188.766 249.098 188.766C247.985 188.766 247.081 189.67 247.081 190.783Z" fill="#B95B7B"/>
<path d="M232.391 190.783C232.391 191.897 233.295 192.8 234.408 192.8C235.522 192.8 236.426 191.897 236.426 190.783C236.426 189.67 235.522 188.766 234.408 188.766C233.295 188.766 232.391 189.67 232.391 190.783Z" fill="#B95B7B"/>
<path d="M217.7 190.783C217.7 191.897 218.604 192.8 219.718 192.8C220.831 192.8 221.735 191.897 221.735 190.783C221.735 189.67 220.831 188.766 219.718 188.766C218.601 188.766 217.7 189.67 217.7 190.783Z" fill="#B95B7B"/>
<path d="M203.006 190.783C203.006 191.897 203.91 192.8 205.025 192.8C206.139 192.8 207.041 191.897 207.041 190.783C207.041 189.67 206.139 188.766 205.025 188.766C203.907 188.766 203.006 189.67 203.006 190.783Z" fill="#B95B7B"/>
<path d="M188.315 190.783C188.315 191.897 189.216 192.8 190.333 192.8C191.446 192.8 192.35 191.897 192.35 190.783C192.35 189.67 191.446 188.766 190.333 188.766C189.219 188.766 188.315 189.67 188.315 190.783Z" fill="#B95B7B"/>
<path d="M173.625 190.783C173.625 191.897 174.529 192.8 175.643 192.8C176.756 192.8 177.66 191.897 177.66 190.783C177.66 189.67 176.756 188.766 175.643 188.766C174.529 188.766 173.625 189.67 173.625 190.783Z" fill="#B95B7B"/>
<path d="M159.122 190.783C159.122 191.897 160.026 192.8 161.139 192.8C162.253 192.8 163.157 191.897 163.157 190.783C163.157 189.67 162.253 188.766 161.139 188.766C160.026 188.766 159.122 189.67 159.122 190.783Z" fill="#B95B7B"/>
<path d="M144.619 190.783C144.619 191.897 145.523 192.8 146.636 192.8C147.75 192.8 148.654 191.897 148.654 190.783C148.654 189.67 147.75 188.766 146.636 188.766C145.523 188.766 144.619 189.67 144.619 190.783Z" fill="#B95B7B"/>
<path d="M130.116 190.783C130.116 191.897 131.02 192.8 132.133 192.8C133.247 192.8 134.151 191.897 134.151 190.783C134.151 189.67 133.247 188.766 132.133 188.766C131.02 188.766 130.116 189.67 130.116 190.783Z" fill="#B95B7B"/>
<path d="M247.081 205.473C247.081 206.587 247.985 207.491 249.098 207.491C250.212 207.491 251.116 206.587 251.116 205.473C251.116 204.36 250.212 203.456 249.098 203.456C247.985 203.456 247.081 204.36 247.081 205.473Z" fill="#B95B7B"/>
<path d="M247.081 219.976C247.081 221.09 247.985 221.994 249.098 221.994C250.212 221.994 251.116 221.09 251.116 219.976C251.116 218.863 250.212 217.959 249.098 217.959C247.985 217.959 247.081 218.863 247.081 219.976Z" fill="#B95B7B"/>
<path d="M247.081 234.48C247.081 235.593 247.985 236.497 249.098 236.497C250.212 236.497 251.116 235.593 251.116 234.48C251.116 233.366 250.212 232.462 249.098 232.462C247.985 232.462 247.081 233.366 247.081 234.48Z" fill="#B95B7B"/>
<path d="M247.081 248.983C247.081 250.096 247.985 251 249.098 251C250.212 251 251.116 250.096 251.116 248.983C251.116 247.869 250.212 246.965 249.098 246.965C247.985 246.965 247.081 247.869 247.081 248.983Z" fill="#B95B7B"/>
<path d="M232.391 205.473C232.391 206.587 233.295 207.491 234.408 207.491C235.522 207.491 236.426 206.587 236.426 205.473C236.426 204.36 235.522 203.456 234.408 203.456C233.295 203.456 232.391 204.36 232.391 205.473Z" fill="#B95B7B"/>
<path d="M232.391 219.976C232.391 221.09 233.295 221.994 234.408 221.994C235.522 221.994 236.426 221.09 236.426 219.976C236.426 218.863 235.522 217.959 234.408 217.959C233.295 217.959 232.391 218.863 232.391 219.976Z" fill="#B95B7B"/>
<path d="M232.391 234.48C232.391 235.593 233.295 236.497 234.408 236.497C235.522 236.497 236.426 235.593 236.426 234.48C236.426 233.366 235.522 232.462 234.408 232.462C233.295 232.462 232.391 233.366 232.391 234.48Z" fill="#B95B7B"/>
<path d="M232.391 248.983C232.391 250.096 233.295 251 234.408 251C235.522 251 236.426 250.096 236.426 248.983C236.426 247.869 235.522 246.965 234.408 246.965C233.295 246.965 232.391 247.869 232.391 248.983Z" fill="#B95B7B"/>
<path d="M217.7 205.473C217.7 206.587 218.604 207.491 219.718 207.491C220.831 207.491 221.735 206.587 221.735 205.473C221.735 204.36 220.831 203.456 219.718 203.456C218.601 203.456 217.7 204.36 217.7 205.473Z" fill="#B95B7B"/>
<path d="M217.7 219.976C217.7 221.09 218.604 221.994 219.718 221.994C220.831 221.994 221.735 221.09 221.735 219.976C221.735 218.863 220.831 217.959 219.718 217.959C218.601 217.959 217.7 218.863 217.7 219.976Z" fill="#B95B7B"/>
<path d="M217.7 234.48C217.7 235.593 218.604 236.497 219.718 236.497C220.831 236.497 221.735 235.593 221.735 234.48C221.735 233.366 220.831 232.462 219.718 232.462C218.601 232.462 217.7 233.366 217.7 234.48Z" fill="#B95B7B"/>
<path d="M217.7 248.983C217.7 250.096 218.604 251 219.718 251C220.831 251 221.735 250.096 221.735 248.983C221.735 247.869 220.831 246.965 219.718 246.965C218.601 246.965 217.7 247.869 217.7 248.983Z" fill="#B95B7B"/>
<path d="M203.006 205.473C203.006 206.587 203.91 207.491 205.025 207.491C206.139 207.491 207.041 206.587 207.041 205.473C207.041 204.36 206.139 203.456 205.025 203.456C203.907 203.456 203.006 204.36 203.006 205.473Z" fill="#B95B7B"/>
<path d="M203.006 219.976C203.006 221.09 203.91 221.994 205.025 221.994C206.139 221.994 207.041 221.09 207.041 219.976C207.041 218.863 206.139 217.959 205.025 217.959C203.907 217.959 203.006 218.863 203.006 219.976Z" fill="#B95B7B"/>
<path d="M203.006 234.48C203.006 235.593 203.91 236.497 205.025 236.497C206.139 236.497 207.041 235.593 207.041 234.48C207.041 233.366 206.139 232.462 205.025 232.462C203.907 232.462 203.006 233.366 203.006 234.48Z" fill="#B95B7B"/>
<path d="M203.006 248.983C203.006 250.096 203.91 251 205.025 251C206.139 251 207.041 250.096 207.041 248.983C207.041 247.869 206.139 246.965 205.025 246.965C203.907 246.965 203.006 247.869 203.006 248.983Z" fill="#B95B7B"/>
<path d="M188.315 205.473C188.315 206.587 189.216 207.491 190.333 207.491C191.446 207.491 192.35 206.587 192.35 205.473C192.35 204.36 191.446 203.456 190.333 203.456C189.219 203.456 188.315 204.36 188.315 205.473Z" fill="#B95B7B"/>
<path d="M188.315 219.976C188.315 221.09 189.216 221.994 190.333 221.994C191.446 221.994 192.35 221.09 192.35 219.976C192.35 218.863 191.446 217.959 190.333 217.959C189.219 217.959 188.315 218.863 188.315 219.976Z" fill="#B95B7B"/>
<path d="M188.315 234.48C188.315 235.593 189.216 236.497 190.333 236.497C191.446 236.497 192.35 235.593 192.35 234.48C192.35 233.366 191.446 232.462 190.333 232.462C189.219 232.462 188.315 233.366 188.315 234.48Z" fill="#B95B7B"/>
<path d="M188.315 248.983C188.315 250.096 189.216 251 190.333 251C191.446 251 192.35 250.096 192.35 248.983C192.35 247.869 191.446 246.965 190.333 246.965C189.219 246.965 188.315 247.869 188.315 248.983Z" fill="#B95B7B"/>
<path d="M173.625 205.473C173.625 206.587 174.529 207.491 175.643 207.491C176.756 207.491 177.66 206.587 177.66 205.473C177.66 204.36 176.756 203.456 175.643 203.456C174.529 203.456 173.625 204.36 173.625 205.473Z" fill="#B95B7B"/>
<path d="M173.625 219.976C173.625 221.09 174.529 221.994 175.643 221.994C176.756 221.994 177.66 221.09 177.66 219.976C177.66 218.863 176.756 217.959 175.643 217.959C174.529 217.959 173.625 218.863 173.625 219.976Z" fill="#B95B7B"/>
<path d="M173.625 234.48C173.625 235.593 174.529 236.497 175.643 236.497C176.756 236.497 177.66 235.593 177.66 234.48C177.66 233.366 176.756 232.462 175.643 232.462C174.529 232.462 173.625 233.366 173.625 234.48Z" fill="#B95B7B"/>
<path d="M173.625 248.983C173.625 250.096 174.529 251 175.643 251C176.756 251 177.66 250.096 177.66 248.983C177.66 247.869 176.756 246.965 175.643 246.965C174.529 246.965 173.625 247.869 173.625 248.983Z" fill="#B95B7B"/>
<path d="M159.122 205.473C159.122 206.587 160.026 207.491 161.139 207.491C162.253 207.491 163.157 206.587 163.157 205.473C163.157 204.36 162.253 203.456 161.139 203.456C160.026 203.456 159.122 204.36 159.122 205.473Z" fill="#B95B7B"/>
<path d="M159.122 219.976C159.122 221.09 160.026 221.994 161.139 221.994C162.253 221.994 163.157 221.09 163.157 219.976C163.157 218.863 162.253 217.959 161.139 217.959C160.026 217.959 159.122 218.863 159.122 219.976Z" fill="#B95B7B"/>
<path d="M159.122 234.48C159.122 235.593 160.026 236.497 161.139 236.497C162.253 236.497 163.157 235.593 163.157 234.48C163.157 233.366 162.253 232.462 161.139 232.462C160.026 232.462 159.122 233.366 159.122 234.48Z" fill="#B95B7B"/>
<path d="M159.122 248.983C159.122 250.096 160.026 251 161.139 251C162.253 251 163.157 250.096 163.157 248.983C163.157 247.869 162.253 246.965 161.139 246.965C160.026 246.965 159.122 247.869 159.122 248.983Z" fill="#B95B7B"/>
<path d="M144.619 205.473C144.619 206.587 145.523 207.491 146.636 207.491C147.75 207.491 148.654 206.587 148.654 205.473C148.654 204.36 147.75 203.456 146.636 203.456C145.523 203.456 144.619 204.36 144.619 205.473Z" fill="#B95B7B"/>
<path d="M144.619 219.976C144.619 221.09 145.523 221.994 146.636 221.994C147.75 221.994 148.654 221.09 148.654 219.976C148.654 218.863 147.75 217.959 146.636 217.959C145.523 217.959 144.619 218.863 144.619 219.976Z" fill="#B95B7B"/>
<path d="M144.619 234.48C144.619 235.593 145.523 236.497 146.636 236.497C147.75 236.497 148.654 235.593 148.654 234.48C148.654 233.366 147.75 232.462 146.636 232.462C145.523 232.462 144.619 233.366 144.619 234.48Z" fill="#B95B7B"/>
<path d="M144.619 248.983C144.619 250.096 145.523 251 146.636 251C147.75 251 148.654 250.096 148.654 248.983C148.654 247.869 147.75 246.965 146.636 246.965C145.523 246.965 144.619 247.869 144.619 248.983Z" fill="#B95B7B"/>
<path d="M130.116 205.473C130.116 206.587 131.02 207.491 132.133 207.491C133.247 207.491 134.151 206.587 134.151 205.473C134.151 204.36 133.247 203.456 132.133 203.456C131.02 203.456 130.116 204.36 130.116 205.473Z" fill="#B95B7B"/>
<path d="M130.116 219.976C130.116 221.09 131.02 221.994 132.133 221.994C133.247 221.994 134.151 221.09 134.151 219.976C134.151 218.863 133.247 217.959 132.133 217.959C131.02 217.959 130.116 218.863 130.116 219.976Z" fill="#B95B7B"/>
<path d="M130.116 234.48C130.116 235.593 131.02 236.497 132.133 236.497C133.247 236.497 134.151 235.593 134.151 234.48C134.151 233.366 133.247 232.462 132.133 232.462C131.02 232.462 130.116 233.366 130.116 234.48Z" fill="#B95B7B"/>
<path d="M130.116 248.983C130.116 250.096 131.02 251 132.133 251C133.247 251 134.151 250.096 134.151 248.983C134.151 247.869 133.247 246.965 132.133 246.965C131.02 246.965 130.116 247.869 130.116 248.983Z" fill="#B95B7B"/>
</g>
<g opacity="0.15">
<path d="M117.081 2.01741C117.081 3.13087 117.985 4.03482 119.098 4.03482C120.212 4.03482 121.116 3.13087 121.116 2.01741C121.116 0.903942 120.212 0 119.098 0C117.985 0 117.081 0.903942 117.081 2.01741Z" fill="#B95B7B"/>
<path d="M102.391 2.01741C102.391 3.13087 103.295 4.03482 104.408 4.03482C105.522 4.03482 106.426 3.13087 106.426 2.01741C106.426 0.903942 105.522 0 104.408 0C103.295 0 102.391 0.903942 102.391 2.01741Z" fill="#B95B7B"/>
<path d="M87.7004 2.01741C87.7004 3.13087 88.6044 4.03482 89.7178 4.03482C90.8313 4.03482 91.7352 3.13087 91.7352 2.01741C91.7352 0.903942 90.8313 0 89.7178 0C88.6014 0 87.7004 0.903942 87.7004 2.01741Z" fill="#B95B7B"/>
<path d="M73.0058 2.01741C73.0058 3.13087 73.9104 4.03482 75.0247 4.03482C76.139 4.03482 77.0406 3.13087 77.0406 2.01741C77.0406 0.903942 76.139 0 75.0247 0C73.9074 0 73.0058 0.903942 73.0058 2.01741Z" fill="#B95B7B"/>
<path d="M58.3155 2.01741C58.3155 3.13087 59.2164 4.03482 60.3329 4.03482C61.4463 4.03482 62.3503 3.13087 62.3503 2.01741C62.3503 0.903942 61.4463 0 60.3329 0C59.2194 0 58.3155 0.903942 58.3155 2.01741Z" fill="#B95B7B"/>
<path d="M43.6252 2.01741C43.6252 3.13087 44.5291 4.03482 45.6426 4.03482C46.756 4.03482 47.66 3.13087 47.66 2.01741C47.66 0.903942 46.756 0 45.6426 0C44.5291 0 43.6252 0.903942 43.6252 2.01741Z" fill="#B95B7B"/>
<path d="M29.122 2.01741C29.122 3.13087 30.026 4.03482 31.1395 4.03482C32.2529 4.03482 33.1569 3.13087 33.1569 2.01741C33.1569 0.903942 32.2529 0 31.1395 0C30.026 0 29.122 0.903942 29.122 2.01741Z" fill="#B95B7B"/>
<path d="M14.6189 2.01741C14.6189 3.13087 15.5229 4.03482 16.6363 4.03482C17.7498 4.03482 18.6537 3.13087 18.6537 2.01741C18.6537 0.903942 17.7498 0 16.6363 0C15.5229 0 14.6189 0.903942 14.6189 2.01741Z" fill="#B95B7B"/>
<path d="M0.115877 2.01741C0.115877 3.13087 1.01982 4.03482 2.13329 4.03482C3.24675 4.03482 4.1507 3.13087 4.1507 2.01741C4.1507 0.903942 3.24675 0 2.13329 0C1.01982 0 0.115877 0.903942 0.115877 2.01741Z" fill="#B95B7B"/>
<path d="M117.081 16.7078C117.081 17.8213 117.985 18.7252 119.098 18.7252C120.212 18.7252 121.116 17.8213 121.116 16.7078C121.116 15.5944 120.212 14.6904 119.098 14.6904C117.985 14.6904 117.081 15.5944 117.081 16.7078Z" fill="#B95B7B"/>
<path d="M102.391 16.7078C102.391 17.8213 103.295 18.7252 104.408 18.7252C105.522 18.7252 106.426 17.8213 106.426 16.7078C106.426 15.5944 105.522 14.6904 104.408 14.6904C103.295 14.6904 102.391 15.5944 102.391 16.7078Z" fill="#B95B7B"/>
<path d="M87.7004 16.7078C87.7004 17.8213 88.6044 18.7252 89.7178 18.7252C90.8313 18.7252 91.7352 17.8213 91.7352 16.7078C91.7352 15.5944 90.8313 14.6904 89.7178 14.6904C88.6014 14.6904 87.7004 15.5944 87.7004 16.7078Z" fill="#B95B7B"/>
<path d="M73.0058 16.7078C73.0058 17.8213 73.9104 18.7252 75.0247 18.7252C76.139 18.7252 77.0406 17.8213 77.0406 16.7078C77.0406 15.5944 76.139 14.6904 75.0247 14.6904C73.9074 14.6904 73.0058 15.5944 73.0058 16.7078Z" fill="#B95B7B"/>
<path d="M58.3155 16.7078C58.3155 17.8213 59.2164 18.7252 60.3329 18.7252C61.4463 18.7252 62.3503 17.8213 62.3503 16.7078C62.3503 15.5944 61.4463 14.6904 60.3329 14.6904C59.2194 14.6904 58.3155 15.5944 58.3155 16.7078Z" fill="#B95B7B"/>
<path d="M43.6252 16.7078C43.6252 17.8213 44.5291 18.7252 45.6426 18.7252C46.756 18.7252 47.66 17.8213 47.66 16.7078C47.66 15.5944 46.756 14.6904 45.6426 14.6904C44.5291 14.6904 43.6252 15.5944 43.6252 16.7078Z" fill="#B95B7B"/>
<path d="M29.122 16.7078C29.122 17.8213 30.026 18.7252 31.1395 18.7252C32.2529 18.7252 33.1569 17.8213 33.1569 16.7078C33.1569 15.5944 32.2529 14.6904 31.1395 14.6904C30.026 14.6904 29.122 15.5944 29.122 16.7078Z" fill="#B95B7B"/>
<path d="M14.6189 16.7078C14.6189 17.8213 15.5229 18.7252 16.6363 18.7252C17.7498 18.7252 18.6537 17.8213 18.6537 16.7078C18.6537 15.5944 17.7498 14.6904 16.6363 14.6904C15.5229 14.6904 14.6189 15.5944 14.6189 16.7078Z" fill="#B95B7B"/>
<path d="M0.115877 16.7078C0.115877 17.8213 1.01982 18.7252 2.13329 18.7252C3.24675 18.7252 4.1507 17.8213 4.1507 16.7078C4.1507 15.5944 3.24675 14.6904 2.13329 14.6904C1.01982 14.6904 0.115877 15.5944 0.115877 16.7078Z" fill="#B95B7B"/>
<path d="M117.081 31.3983C117.081 32.5117 117.985 33.4157 119.098 33.4157C120.212 33.4157 121.116 32.5117 121.116 31.3983C121.116 30.2848 120.212 29.3809 119.098 29.3809C117.985 29.3809 117.081 30.2848 117.081 31.3983Z" fill="#B95B7B"/>
<path d="M102.391 31.3983C102.391 32.5117 103.295 33.4157 104.408 33.4157C105.522 33.4157 106.426 32.5117 106.426 31.3983C106.426 30.2848 105.522 29.3809 104.408 29.3809C103.295 29.3809 102.391 30.2848 102.391 31.3983Z" fill="#B95B7B"/>
<path d="M87.7004 31.3983C87.7004 32.5117 88.6044 33.4157 89.7178 33.4157C90.8313 33.4157 91.7352 32.5117 91.7352 31.3983C91.7352 30.2848 90.8313 29.3809 89.7178 29.3809C88.6014 29.3809 87.7004 30.2848 87.7004 31.3983Z" fill="#B95B7B"/>
<path d="M73.0058 31.3983C73.0058 32.5117 73.9104 33.4157 75.0247 33.4157C76.139 33.4157 77.0406 32.5117 77.0406 31.3983C77.0406 30.2848 76.139 29.3809 75.0247 29.3809C73.9074 29.3809 73.0058 30.2848 73.0058 31.3983Z" fill="#B95B7B"/>
<path d="M58.3155 31.3983C58.3155 32.5117 59.2164 33.4157 60.3329 33.4157C61.4463 33.4157 62.3503 32.5117 62.3503 31.3983C62.3503 30.2848 61.4463 29.3809 60.3329 29.3809C59.2194 29.3809 58.3155 30.2848 58.3155 31.3983Z" fill="#B95B7B"/>
<path d="M43.6252 31.3983C43.6252 32.5117 44.5291 33.4157 45.6426 33.4157C46.756 33.4157 47.66 32.5117 47.66 31.3983C47.66 30.2848 46.756 29.3809 45.6426 29.3809C44.5291 29.3809 43.6252 30.2848 43.6252 31.3983Z" fill="#B95B7B"/>
<path d="M29.122 31.3983C29.122 32.5117 30.026 33.4157 31.1395 33.4157C32.2529 33.4157 33.1569 32.5117 33.1569 31.3983C33.1569 30.2848 32.2529 29.3809 31.1395 29.3809C30.026 29.3809 29.122 30.2848 29.122 31.3983Z" fill="#B95B7B"/>
<path d="M14.6189 31.3983C14.6189 32.5117 15.5229 33.4157 16.6363 33.4157C17.7498 33.4157 18.6537 32.5117 18.6537 31.3983C18.6537 30.2848 17.7498 29.3809 16.6363 29.3809C15.5229 29.3809 14.6189 30.2848 14.6189 31.3983Z" fill="#B95B7B"/>
<path d="M0.115877 31.3983C0.115877 32.5117 1.01982 33.4157 2.13329 33.4157C3.24675 33.4157 4.1507 32.5117 4.1507 31.3983C4.1507 30.2848 3.24675 29.3809 2.13329 29.3809C1.01982 29.3809 0.115877 30.2848 0.115877 31.3983Z" fill="#B95B7B"/>
<path d="M117.081 46.0887C117.081 47.2022 117.985 48.1061 119.098 48.1061C120.212 48.1061 121.116 47.2022 121.116 46.0887C121.116 44.9752 120.212 44.0713 119.098 44.0713C117.985 44.0743 117.081 44.9752 117.081 46.0887Z" fill="#B95B7B"/>
<path d="M102.391 46.0887C102.391 47.2022 103.295 48.1061 104.408 48.1061C105.522 48.1061 106.426 47.2022 106.426 46.0887C106.426 44.9752 105.522 44.0713 104.408 44.0713C103.295 44.0743 102.391 44.9752 102.391 46.0887Z" fill="#B95B7B"/>
<path d="M87.7004 46.0887C87.7004 47.2022 88.6044 48.1061 89.7178 48.1061C90.8313 48.1061 91.7352 47.2022 91.7352 46.0887C91.7352 44.9752 90.8313 44.0713 89.7178 44.0713C88.6014 44.0743 87.7004 44.9752 87.7004 46.0887Z" fill="#B95B7B"/>
<path d="M73.0058 46.0887C73.0058 47.2022 73.9104 48.1061 75.0247 48.1061C76.139 48.1061 77.0406 47.2022 77.0406 46.0887C77.0406 44.9752 76.139 44.0713 75.0247 44.0713C73.9074 44.0743 73.0058 44.9752 73.0058 46.0887Z" fill="#B95B7B"/>
<path d="M58.3155 46.0887C58.3155 47.2022 59.2164 48.1061 60.3329 48.1061C61.4463 48.1061 62.3503 47.2022 62.3503 46.0887C62.3503 44.9752 61.4463 44.0713 60.3329 44.0713C59.2194 44.0743 58.3155 44.9752 58.3155 46.0887Z" fill="#B95B7B"/>
<path d="M43.6252 46.0887C43.6252 47.2022 44.5291 48.1061 45.6426 48.1061C46.756 48.1061 47.66 47.2022 47.66 46.0887C47.66 44.9752 46.756 44.0713 45.6426 44.0713C44.5291 44.0743 43.6252 44.9752 43.6252 46.0887Z" fill="#B95B7B"/>
<path d="M29.122 46.0887C29.122 47.2022 30.026 48.1061 31.1395 48.1061C32.2529 48.1061 33.1569 47.2022 33.1569 46.0887C33.1569 44.9752 32.2529 44.0713 31.1395 44.0713C30.026 44.0743 29.122 44.9752 29.122 46.0887Z" fill="#B95B7B"/>
<path d="M14.6189 46.0887C14.6189 47.2022 15.5229 48.1061 16.6363 48.1061C17.7498 48.1061 18.6537 47.2022 18.6537 46.0887C18.6537 44.9752 17.7498 44.0713 16.6363 44.0713C15.5229 44.0743 14.6189 44.9752 14.6189 46.0887Z" fill="#B95B7B"/>
<path d="M0.115877 46.0887C0.115877 47.2022 1.01982 48.1061 2.13329 48.1061C3.24675 48.1061 4.1507 47.2022 4.1507 46.0887C4.1507 44.9752 3.24675 44.0713 2.13329 44.0713C1.01982 44.0743 0.115877 44.9752 0.115877 46.0887Z" fill="#B95B7B"/>
<path d="M117.081 60.783C117.081 61.8965 117.985 62.8004 119.098 62.8004C120.212 62.8004 121.116 61.8965 121.116 60.783C121.116 59.6696 120.212 58.7656 119.098 58.7656C117.985 58.7656 117.081 59.6696 117.081 60.783Z" fill="#B95B7B"/>
<path d="M102.391 60.783C102.391 61.8965 103.295 62.8004 104.408 62.8004C105.522 62.8004 106.426 61.8965 106.426 60.783C106.426 59.6696 105.522 58.7656 104.408 58.7656C103.295 58.7656 102.391 59.6696 102.391 60.783Z" fill="#B95B7B"/>
<path d="M87.7004 60.783C87.7004 61.8965 88.6044 62.8004 89.7178 62.8004C90.8313 62.8004 91.7352 61.8965 91.7352 60.783C91.7352 59.6696 90.8313 58.7656 89.7178 58.7656C88.6014 58.7656 87.7004 59.6696 87.7004 60.783Z" fill="#B95B7B"/>
<path d="M73.0058 60.783C73.0058 61.8965 73.9104 62.8004 75.0247 62.8004C76.139 62.8004 77.0406 61.8965 77.0406 60.783C77.0406 59.6696 76.139 58.7656 75.0247 58.7656C73.9074 58.7656 73.0058 59.6696 73.0058 60.783Z" fill="#B95B7B"/>
<path d="M58.3155 60.783C58.3155 61.8965 59.2164 62.8004 60.3329 62.8004C61.4463 62.8004 62.3503 61.8965 62.3503 60.783C62.3503 59.6696 61.4463 58.7656 60.3329 58.7656C59.2194 58.7656 58.3155 59.6696 58.3155 60.783Z" fill="#B95B7B"/>
<path d="M43.6252 60.783C43.6252 61.8965 44.5291 62.8004 45.6426 62.8004C46.756 62.8004 47.66 61.8965 47.66 60.783C47.66 59.6696 46.756 58.7656 45.6426 58.7656C44.5291 58.7656 43.6252 59.6696 43.6252 60.783Z" fill="#B95B7B"/>
<path d="M29.122 60.783C29.122 61.8965 30.026 62.8004 31.1395 62.8004C32.2529 62.8004 33.1569 61.8965 33.1569 60.783C33.1569 59.6696 32.2529 58.7656 31.1395 58.7656C30.026 58.7656 29.122 59.6696 29.122 60.783Z" fill="#B95B7B"/>
<path d="M14.6189 60.783C14.6189 61.8965 15.5229 62.8004 16.6363 62.8004C17.7498 62.8004 18.6537 61.8965 18.6537 60.783C18.6537 59.6696 17.7498 58.7656 16.6363 58.7656C15.5229 58.7656 14.6189 59.6696 14.6189 60.783Z" fill="#B95B7B"/>
<path d="M0.115877 60.783C0.115877 61.8965 1.01982 62.8004 2.13329 62.8004C3.24675 62.8004 4.1507 61.8965 4.1507 60.783C4.1507 59.6696 3.24675 58.7656 2.13329 58.7656C1.01982 58.7656 0.115877 59.6696 0.115877 60.783Z" fill="#B95B7B"/>
<path d="M117.081 75.4735C117.081 76.5869 117.985 77.4909 119.098 77.4909C120.212 77.4909 121.116 76.5869 121.116 75.4735C121.116 74.36 120.212 73.4561 119.098 73.4561C117.985 73.4561 117.081 74.36 117.081 75.4735Z" fill="#B95B7B"/>
<path d="M117.081 89.9764C117.081 91.0899 117.985 91.9938 119.098 91.9938C120.212 91.9938 121.116 91.0899 121.116 89.9764C121.116 88.8629 120.212 87.959 119.098 87.959C117.985 87.959 117.081 88.8629 117.081 89.9764Z" fill="#B95B7B"/>
<path d="M117.081 104.48C117.081 105.593 117.985 106.497 119.098 106.497C120.212 106.497 121.116 105.593 121.116 104.48C121.116 103.366 120.212 102.462 119.098 102.462C117.985 102.462 117.081 103.366 117.081 104.48Z" fill="#B95B7B"/>
<path d="M117.081 118.983C117.081 120.096 117.985 121 119.098 121C120.212 121 121.116 120.096 121.116 118.983C121.116 117.869 120.212 116.965 119.098 116.965C117.985 116.965 117.081 117.869 117.081 118.983Z" fill="#B95B7B"/>
<path d="M102.391 75.4735C102.391 76.5869 103.295 77.4909 104.408 77.4909C105.522 77.4909 106.426 76.5869 106.426 75.4735C106.426 74.36 105.522 73.4561 104.408 73.4561C103.295 73.4561 102.391 74.36 102.391 75.4735Z" fill="#B95B7B"/>
<path d="M102.391 89.9764C102.391 91.0899 103.295 91.9938 104.408 91.9938C105.522 91.9938 106.426 91.0899 106.426 89.9764C106.426 88.8629 105.522 87.959 104.408 87.959C103.295 87.959 102.391 88.8629 102.391 89.9764Z" fill="#B95B7B"/>
<path d="M102.391 104.48C102.391 105.593 103.295 106.497 104.408 106.497C105.522 106.497 106.426 105.593 106.426 104.48C106.426 103.366 105.522 102.462 104.408 102.462C103.295 102.462 102.391 103.366 102.391 104.48Z" fill="#B95B7B"/>
<path d="M102.391 118.983C102.391 120.096 103.295 121 104.408 121C105.522 121 106.426 120.096 106.426 118.983C106.426 117.869 105.522 116.965 104.408 116.965C103.295 116.965 102.391 117.869 102.391 118.983Z" fill="#B95B7B"/>
<path d="M87.7004 75.4735C87.7004 76.5869 88.6044 77.4909 89.7178 77.4909C90.8313 77.4909 91.7352 76.5869 91.7352 75.4735C91.7352 74.36 90.8313 73.4561 89.7178 73.4561C88.6014 73.4561 87.7004 74.36 87.7004 75.4735Z" fill="#B95B7B"/>
<path d="M87.7004 89.9764C87.7004 91.0899 88.6044 91.9938 89.7178 91.9938C90.8313 91.9938 91.7352 91.0899 91.7352 89.9764C91.7352 88.8629 90.8313 87.959 89.7178 87.959C88.6014 87.959 87.7004 88.8629 87.7004 89.9764Z" fill="#B95B7B"/>
<path d="M87.7004 104.48C87.7004 105.593 88.6044 106.497 89.7178 106.497C90.8313 106.497 91.7352 105.593 91.7352 104.48C91.7352 103.366 90.8313 102.462 89.7178 102.462C88.6014 102.462 87.7004 103.366 87.7004 104.48Z" fill="#B95B7B"/>
<path d="M87.7004 118.983C87.7004 120.096 88.6044 121 89.7178 121C90.8313 121 91.7352 120.096 91.7352 118.983C91.7352 117.869 90.8313 116.965 89.7178 116.965C88.6014 116.965 87.7004 117.869 87.7004 118.983Z" fill="#B95B7B"/>
<path d="M73.0058 75.4735C73.0058 76.5869 73.9104 77.4909 75.0247 77.4909C76.139 77.4909 77.0406 76.5869 77.0406 75.4735C77.0406 74.36 76.139 73.4561 75.0247 73.4561C73.9074 73.4561 73.0058 74.36 73.0058 75.4735Z" fill="#B95B7B"/>
<path d="M73.0058 89.9764C73.0058 91.0899 73.9104 91.9938 75.0247 91.9938C76.139 91.9938 77.0406 91.0899 77.0406 89.9764C77.0406 88.8629 76.139 87.959 75.0247 87.959C73.9074 87.959 73.0058 88.8629 73.0058 89.9764Z" fill="#B95B7B"/>
<path d="M73.0058 104.48C73.0058 105.593 73.9104 106.497 75.0247 106.497C76.139 106.497 77.0406 105.593 77.0406 104.48C77.0406 103.366 76.139 102.462 75.0247 102.462C73.9074 102.462 73.0058 103.366 73.0058 104.48Z" fill="#B95B7B"/>
<path d="M73.0058 118.983C73.0058 120.096 73.9104 121 75.0247 121C76.139 121 77.0406 120.096 77.0406 118.983C77.0406 117.869 76.139 116.965 75.0247 116.965C73.9074 116.965 73.0058 117.869 73.0058 118.983Z" fill="#B95B7B"/>
<path d="M58.3155 75.4735C58.3155 76.5869 59.2164 77.4909 60.3329 77.4909C61.4463 77.4909 62.3503 76.5869 62.3503 75.4735C62.3503 74.36 61.4463 73.4561 60.3329 73.4561C59.2194 73.4561 58.3155 74.36 58.3155 75.4735Z" fill="#B95B7B"/>
<path d="M58.3155 89.9764C58.3155 91.0899 59.2164 91.9938 60.3329 91.9938C61.4463 91.9938 62.3503 91.0899 62.3503 89.9764C62.3503 88.8629 61.4463 87.959 60.3329 87.959C59.2194 87.959 58.3155 88.8629 58.3155 89.9764Z" fill="#B95B7B"/>
<path d="M58.3155 104.48C58.3155 105.593 59.2164 106.497 60.3329 106.497C61.4463 106.497 62.3503 105.593 62.3503 104.48C62.3503 103.366 61.4463 102.462 60.3329 102.462C59.2194 102.462 58.3155 103.366 58.3155 104.48Z" fill="#B95B7B"/>
<path d="M58.3155 118.983C58.3155 120.096 59.2164 121 60.3329 121C61.4463 121 62.3503 120.096 62.3503 118.983C62.3503 117.869 61.4463 116.965 60.3329 116.965C59.2194 116.965 58.3155 117.869 58.3155 118.983Z" fill="#B95B7B"/>
<path d="M43.6252 75.4735C43.6252 76.5869 44.5291 77.4909 45.6426 77.4909C46.756 77.4909 47.66 76.5869 47.66 75.4735C47.66 74.36 46.756 73.4561 45.6426 73.4561C44.5291 73.4561 43.6252 74.36 43.6252 75.4735Z" fill="#B95B7B"/>
<path d="M43.6252 89.9764C43.6252 91.0899 44.5291 91.9938 45.6426 91.9938C46.756 91.9938 47.66 91.0899 47.66 89.9764C47.66 88.8629 46.756 87.959 45.6426 87.959C44.5291 87.959 43.6252 88.8629 43.6252 89.9764Z" fill="#B95B7B"/>
<path d="M43.6252 104.48C43.6252 105.593 44.5291 106.497 45.6426 106.497C46.756 106.497 47.66 105.593 47.66 104.48C47.66 103.366 46.756 102.462 45.6426 102.462C44.5291 102.462 43.6252 103.366 43.6252 104.48Z" fill="#B95B7B"/>
<path d="M43.6252 118.983C43.6252 120.096 44.5291 121 45.6426 121C46.756 121 47.66 120.096 47.66 118.983C47.66 117.869 46.756 116.965 45.6426 116.965C44.5291 116.965 43.6252 117.869 43.6252 118.983Z" fill="#B95B7B"/>
<path d="M29.122 75.4735C29.122 76.5869 30.026 77.4909 31.1395 77.4909C32.2529 77.4909 33.1569 76.5869 33.1569 75.4735C33.1569 74.36 32.2529 73.4561 31.1395 73.4561C30.026 73.4561 29.122 74.36 29.122 75.4735Z" fill="#B95B7B"/>
<path d="M29.122 89.9764C29.122 91.0899 30.026 91.9938 31.1395 91.9938C32.2529 91.9938 33.1569 91.0899 33.1569 89.9764C33.1569 88.8629 32.2529 87.959 31.1395 87.959C30.026 87.959 29.122 88.8629 29.122 89.9764Z" fill="#B95B7B"/>
<path d="M29.122 104.48C29.122 105.593 30.026 106.497 31.1395 106.497C32.2529 106.497 33.1569 105.593 33.1569 104.48C33.1569 103.366 32.2529 102.462 31.1395 102.462C30.026 102.462 29.122 103.366 29.122 104.48Z" fill="#B95B7B"/>
<path d="M29.122 118.983C29.122 120.096 30.026 121 31.1395 121C32.2529 121 33.1569 120.096 33.1569 118.983C33.1569 117.869 32.2529 116.965 31.1395 116.965C30.026 116.965 29.122 117.869 29.122 118.983Z" fill="#B95B7B"/>
<path d="M14.6189 75.4735C14.6189 76.5869 15.5229 77.4909 16.6363 77.4909C17.7498 77.4909 18.6537 76.5869 18.6537 75.4735C18.6537 74.36 17.7498 73.4561 16.6363 73.4561C15.5229 73.4561 14.6189 74.36 14.6189 75.4735Z" fill="#B95B7B"/>
<path d="M14.6189 89.9764C14.6189 91.0899 15.5229 91.9938 16.6363 91.9938C17.7498 91.9938 18.6537 91.0899 18.6537 89.9764C18.6537 88.8629 17.7498 87.959 16.6363 87.959C15.5229 87.959 14.6189 88.8629 14.6189 89.9764Z" fill="#B95B7B"/>
<path d="M14.6189 104.48C14.6189 105.593 15.5229 106.497 16.6363 106.497C17.7498 106.497 18.6537 105.593 18.6537 104.48C18.6537 103.366 17.7498 102.462 16.6363 102.462C15.5229 102.462 14.6189 103.366 14.6189 104.48Z" fill="#B95B7B"/>
<path d="M14.6189 118.983C14.6189 120.096 15.5229 121 16.6363 121C17.7498 121 18.6537 120.096 18.6537 118.983C18.6537 117.869 17.7498 116.965 16.6363 116.965C15.5229 116.965 14.6189 117.869 14.6189 118.983Z" fill="#B95B7B"/>
<path d="M0.115877 75.4735C0.115877 76.5869 1.01982 77.4909 2.13329 77.4909C3.24675 77.4909 4.1507 76.5869 4.1507 75.4735C4.1507 74.36 3.24675 73.4561 2.13329 73.4561C1.01982 73.4561 0.115877 74.36 0.115877 75.4735Z" fill="#B95B7B"/>
<path d="M0.115877 89.9764C0.115877 91.0899 1.01982 91.9938 2.13329 91.9938C3.24675 91.9938 4.1507 91.0899 4.1507 89.9764C4.1507 88.8629 3.24675 87.959 2.13329 87.959C1.01982 87.959 0.115877 88.8629 0.115877 89.9764Z" fill="#B95B7B"/>
<path d="M0.115877 104.48C0.115877 105.593 1.01982 106.497 2.13329 106.497C3.24675 106.497 4.1507 105.593 4.1507 104.48C4.1507 103.366 3.24675 102.462 2.13329 102.462C1.01982 102.462 0.115877 103.366 0.115877 104.48Z" fill="#B95B7B"/>
<path d="M0.115877 118.983C0.115877 120.096 1.01982 121 2.13329 121C3.24675 121 4.1507 120.096 4.1507 118.983C4.1507 117.869 3.24675 116.965 2.13329 116.965C1.01982 116.965 0.115877 117.869 0.115877 118.983Z" fill="#B95B7B"/>
</g>
<g opacity="0.15">
<path d="M117.081 132.017C117.081 133.131 117.985 134.035 119.098 134.035C120.212 134.035 121.116 133.131 121.116 132.017C121.116 130.904 120.212 130 119.098 130C117.985 130 117.081 130.904 117.081 132.017Z" fill="#B95B7B"/>
<path d="M102.391 132.017C102.391 133.131 103.295 134.035 104.408 134.035C105.522 134.035 106.426 133.131 106.426 132.017C106.426 130.904 105.522 130 104.408 130C103.295 130 102.391 130.904 102.391 132.017Z" fill="#B95B7B"/>
<path d="M87.7004 132.017C87.7004 133.131 88.6044 134.035 89.7178 134.035C90.8313 134.035 91.7352 133.131 91.7352 132.017C91.7352 130.904 90.8313 130 89.7178 130C88.6014 130 87.7004 130.904 87.7004 132.017Z" fill="#B95B7B"/>
<path d="M73.0058 132.017C73.0058 133.131 73.9104 134.035 75.0247 134.035C76.139 134.035 77.0406 133.131 77.0406 132.017C77.0406 130.904 76.139 130 75.0247 130C73.9074 130 73.0058 130.904 73.0058 132.017Z" fill="#B95B7B"/>
<path d="M58.3155 132.017C58.3155 133.131 59.2164 134.035 60.3329 134.035C61.4463 134.035 62.3503 133.131 62.3503 132.017C62.3503 130.904 61.4463 130 60.3329 130C59.2194 130 58.3155 130.904 58.3155 132.017Z" fill="#B95B7B"/>
<path d="M43.6252 132.017C43.6252 133.131 44.5291 134.035 45.6426 134.035C46.756 134.035 47.66 133.131 47.66 132.017C47.66 130.904 46.756 130 45.6426 130C44.5291 130 43.6252 130.904 43.6252 132.017Z" fill="#B95B7B"/>
<path d="M29.122 132.017C29.122 133.131 30.026 134.035 31.1395 134.035C32.2529 134.035 33.1569 133.131 33.1569 132.017C33.1569 130.904 32.2529 130 31.1395 130C30.026 130 29.122 130.904 29.122 132.017Z" fill="#B95B7B"/>
<path d="M14.6189 132.017C14.6189 133.131 15.5229 134.035 16.6363 134.035C17.7498 134.035 18.6537 133.131 18.6537 132.017C18.6537 130.904 17.7498 130 16.6363 130C15.5229 130 14.6189 130.904 14.6189 132.017Z" fill="#B95B7B"/>
<path d="M0.115877 132.017C0.115877 133.131 1.01982 134.035 2.13329 134.035C3.24675 134.035 4.1507 133.131 4.1507 132.017C4.1507 130.904 3.24675 130 2.13329 130C1.01982 130 0.115877 130.904 0.115877 132.017Z" fill="#B95B7B"/>
<path d="M117.081 146.708C117.081 147.821 117.985 148.725 119.098 148.725C120.212 148.725 121.116 147.821 121.116 146.708C121.116 145.594 120.212 144.69 119.098 144.69C117.985 144.69 117.081 145.594 117.081 146.708Z" fill="#B95B7B"/>
<path d="M102.391 146.708C102.391 147.821 103.295 148.725 104.408 148.725C105.522 148.725 106.426 147.821 106.426 146.708C106.426 145.594 105.522 144.69 104.408 144.69C103.295 144.69 102.391 145.594 102.391 146.708Z" fill="#B95B7B"/>
<path d="M87.7004 146.708C87.7004 147.821 88.6044 148.725 89.7178 148.725C90.8313 148.725 91.7352 147.821 91.7352 146.708C91.7352 145.594 90.8313 144.69 89.7178 144.69C88.6014 144.69 87.7004 145.594 87.7004 146.708Z" fill="#B95B7B"/>
<path d="M73.0058 146.708C73.0058 147.821 73.9104 148.725 75.0247 148.725C76.139 148.725 77.0406 147.821 77.0406 146.708C77.0406 145.594 76.139 144.69 75.0247 144.69C73.9074 144.69 73.0058 145.594 73.0058 146.708Z" fill="#B95B7B"/>
<path d="M58.3155 146.708C58.3155 147.821 59.2164 148.725 60.3329 148.725C61.4463 148.725 62.3503 147.821 62.3503 146.708C62.3503 145.594 61.4463 144.69 60.3329 144.69C59.2194 144.69 58.3155 145.594 58.3155 146.708Z" fill="#B95B7B"/>
<path d="M43.6252 146.708C43.6252 147.821 44.5291 148.725 45.6426 148.725C46.756 148.725 47.66 147.821 47.66 146.708C47.66 145.594 46.756 144.69 45.6426 144.69C44.5291 144.69 43.6252 145.594 43.6252 146.708Z" fill="#B95B7B"/>
<path d="M29.122 146.708C29.122 147.821 30.026 148.725 31.1395 148.725C32.2529 148.725 33.1569 147.821 33.1569 146.708C33.1569 145.594 32.2529 144.69 31.1395 144.69C30.026 144.69 29.122 145.594 29.122 146.708Z" fill="#B95B7B"/>
<path d="M14.6189 146.708C14.6189 147.821 15.5229 148.725 16.6363 148.725C17.7498 148.725 18.6537 147.821 18.6537 146.708C18.6537 145.594 17.7498 144.69 16.6363 144.69C15.5229 144.69 14.6189 145.594 14.6189 146.708Z" fill="#B95B7B"/>
<path d="M0.115877 146.708C0.115877 147.821 1.01982 148.725 2.13329 148.725C3.24675 148.725 4.1507 147.821 4.1507 146.708C4.1507 145.594 3.24675 144.69 2.13329 144.69C1.01982 144.69 0.115877 145.594 0.115877 146.708Z" fill="#B95B7B"/>
<path d="M117.081 161.398C117.081 162.512 117.985 163.416 119.098 163.416C120.212 163.416 121.116 162.512 121.116 161.398C121.116 160.285 120.212 159.381 119.098 159.381C117.985 159.381 117.081 160.285 117.081 161.398Z" fill="#B95B7B"/>
<path d="M102.391 161.398C102.391 162.512 103.295 163.416 104.408 163.416C105.522 163.416 106.426 162.512 106.426 161.398C106.426 160.285 105.522 159.381 104.408 159.381C103.295 159.381 102.391 160.285 102.391 161.398Z" fill="#B95B7B"/>
<path d="M87.7004 161.398C87.7004 162.512 88.6044 163.416 89.7178 163.416C90.8313 163.416 91.7352 162.512 91.7352 161.398C91.7352 160.285 90.8313 159.381 89.7178 159.381C88.6014 159.381 87.7004 160.285 87.7004 161.398Z" fill="#B95B7B"/>
<path d="M73.0058 161.398C73.0058 162.512 73.9104 163.416 75.0247 163.416C76.139 163.416 77.0406 162.512 77.0406 161.398C77.0406 160.285 76.139 159.381 75.0247 159.381C73.9074 159.381 73.0058 160.285 73.0058 161.398Z" fill="#B95B7B"/>
<path d="M58.3155 161.398C58.3155 162.512 59.2164 163.416 60.3329 163.416C61.4463 163.416 62.3503 162.512 62.3503 161.398C62.3503 160.285 61.4463 159.381 60.3329 159.381C59.2194 159.381 58.3155 160.285 58.3155 161.398Z" fill="#B95B7B"/>
<path d="M43.6252 161.398C43.6252 162.512 44.5291 163.416 45.6426 163.416C46.756 163.416 47.66 162.512 47.66 161.398C47.66 160.285 46.756 159.381 45.6426 159.381C44.5291 159.381 43.6252 160.285 43.6252 161.398Z" fill="#B95B7B"/>
<path d="M29.122 161.398C29.122 162.512 30.026 163.416 31.1395 163.416C32.2529 163.416 33.1569 162.512 33.1569 161.398C33.1569 160.285 32.2529 159.381 31.1395 159.381C30.026 159.381 29.122 160.285 29.122 161.398Z" fill="#B95B7B"/>
<path d="M14.6189 161.398C14.6189 162.512 15.5229 163.416 16.6363 163.416C17.7498 163.416 18.6537 162.512 18.6537 161.398C18.6537 160.285 17.7498 159.381 16.6363 159.381C15.5229 159.381 14.6189 160.285 14.6189 161.398Z" fill="#B95B7B"/>
<path d="M0.115877 161.398C0.115877 162.512 1.01982 163.416 2.13329 163.416C3.24675 163.416 4.1507 162.512 4.1507 161.398C4.1507 160.285 3.24675 159.381 2.13329 159.381C1.01982 159.381 0.115877 160.285 0.115877 161.398Z" fill="#B95B7B"/>
<path d="M117.081 176.089C117.081 177.202 117.985 178.106 119.098 178.106C120.212 178.106 121.116 177.202 121.116 176.089C121.116 174.975 120.212 174.071 119.098 174.071C117.985 174.074 117.081 174.975 117.081 176.089Z" fill="#B95B7B"/>
<path d="M102.391 176.089C102.391 177.202 103.295 178.106 104.408 178.106C105.522 178.106 106.426 177.202 106.426 176.089C106.426 174.975 105.522 174.071 104.408 174.071C103.295 174.074 102.391 174.975 102.391 176.089Z" fill="#B95B7B"/>
<path d="M87.7004 176.089C87.7004 177.202 88.6044 178.106 89.7178 178.106C90.8313 178.106 91.7352 177.202 91.7352 176.089C91.7352 174.975 90.8313 174.071 89.7178 174.071C88.6014 174.074 87.7004 174.975 87.7004 176.089Z" fill="#B95B7B"/>
<path d="M73.0058 176.089C73.0058 177.202 73.9104 178.106 75.0247 178.106C76.139 178.106 77.0406 177.202 77.0406 176.089C77.0406 174.975 76.139 174.071 75.0247 174.071C73.9074 174.074 73.0058 174.975 73.0058 176.089Z" fill="#B95B7B"/>
<path d="M58.3155 176.089C58.3155 177.202 59.2164 178.106 60.3329 178.106C61.4463 178.106 62.3503 177.202 62.3503 176.089C62.3503 174.975 61.4463 174.071 60.3329 174.071C59.2194 174.074 58.3155 174.975 58.3155 176.089Z" fill="#B95B7B"/>
<path d="M43.6252 176.089C43.6252 177.202 44.5291 178.106 45.6426 178.106C46.756 178.106 47.66 177.202 47.66 176.089C47.66 174.975 46.756 174.071 45.6426 174.071C44.5291 174.074 43.6252 174.975 43.6252 176.089Z" fill="#B95B7B"/>
<path d="M29.122 176.089C29.122 177.202 30.026 178.106 31.1395 178.106C32.2529 178.106 33.1569 177.202 33.1569 176.089C33.1569 174.975 32.2529 174.071 31.1395 174.071C30.026 174.074 29.122 174.975 29.122 176.089Z" fill="#B95B7B"/>
<path d="M14.6189 176.089C14.6189 177.202 15.5229 178.106 16.6363 178.106C17.7498 178.106 18.6537 177.202 18.6537 176.089C18.6537 174.975 17.7498 174.071 16.6363 174.071C15.5229 174.074 14.6189 174.975 14.6189 176.089Z" fill="#B95B7B"/>
<path d="M0.115877 176.089C0.115877 177.202 1.01982 178.106 2.13329 178.106C3.24675 178.106 4.1507 177.202 4.1507 176.089C4.1507 174.975 3.24675 174.071 2.13329 174.071C1.01982 174.074 0.115877 174.975 0.115877 176.089Z" fill="#B95B7B"/>
<path d="M117.081 190.783C117.081 191.897 117.985 192.8 119.098 192.8C120.212 192.8 121.116 191.897 121.116 190.783C121.116 189.67 120.212 188.766 119.098 188.766C117.985 188.766 117.081 189.67 117.081 190.783Z" fill="#B95B7B"/>
<path d="M102.391 190.783C102.391 191.897 103.295 192.8 104.408 192.8C105.522 192.8 106.426 191.897 106.426 190.783C106.426 189.67 105.522 188.766 104.408 188.766C103.295 188.766 102.391 189.67 102.391 190.783Z" fill="#B95B7B"/>
<path d="M87.7004 190.783C87.7004 191.897 88.6044 192.8 89.7178 192.8C90.8313 192.8 91.7352 191.897 91.7352 190.783C91.7352 189.67 90.8313 188.766 89.7178 188.766C88.6014 188.766 87.7004 189.67 87.7004 190.783Z" fill="#B95B7B"/>
<path d="M73.0058 190.783C73.0058 191.897 73.9104 192.8 75.0247 192.8C76.139 192.8 77.0406 191.897 77.0406 190.783C77.0406 189.67 76.139 188.766 75.0247 188.766C73.9074 188.766 73.0058 189.67 73.0058 190.783Z" fill="#B95B7B"/>
<path d="M58.3155 190.783C58.3155 191.897 59.2164 192.8 60.3329 192.8C61.4463 192.8 62.3503 191.897 62.3503 190.783C62.3503 189.67 61.4463 188.766 60.3329 188.766C59.2194 188.766 58.3155 189.67 58.3155 190.783Z" fill="#B95B7B"/>
<path d="M43.6252 190.783C43.6252 191.897 44.5291 192.8 45.6426 192.8C46.756 192.8 47.66 191.897 47.66 190.783C47.66 189.67 46.756 188.766 45.6426 188.766C44.5291 188.766 43.6252 189.67 43.6252 190.783Z" fill="#B95B7B"/>
<path d="M29.122 190.783C29.122 191.897 30.026 192.8 31.1395 192.8C32.2529 192.8 33.1569 191.897 33.1569 190.783C33.1569 189.67 32.2529 188.766 31.1395 188.766C30.026 188.766 29.122 189.67 29.122 190.783Z" fill="#B95B7B"/>
<path d="M14.6189 190.783C14.6189 191.897 15.5229 192.8 16.6363 192.8C17.7498 192.8 18.6537 191.897 18.6537 190.783C18.6537 189.67 17.7498 188.766 16.6363 188.766C15.5229 188.766 14.6189 189.67 14.6189 190.783Z" fill="#B95B7B"/>
<path d="M0.115877 190.783C0.115877 191.897 1.01982 192.8 2.13329 192.8C3.24675 192.8 4.1507 191.897 4.1507 190.783C4.1507 189.67 3.24675 188.766 2.13329 188.766C1.01982 188.766 0.115877 189.67 0.115877 190.783Z" fill="#B95B7B"/>
<path d="M117.081 205.473C117.081 206.587 117.985 207.491 119.098 207.491C120.212 207.491 121.116 206.587 121.116 205.473C121.116 204.36 120.212 203.456 119.098 203.456C117.985 203.456 117.081 204.36 117.081 205.473Z" fill="#B95B7B"/>
<path d="M117.081 219.976C117.081 221.09 117.985 221.994 119.098 221.994C120.212 221.994 121.116 221.09 121.116 219.976C121.116 218.863 120.212 217.959 119.098 217.959C117.985 217.959 117.081 218.863 117.081 219.976Z" fill="#B95B7B"/>
<path d="M117.081 234.48C117.081 235.593 117.985 236.497 119.098 236.497C120.212 236.497 121.116 235.593 121.116 234.48C121.116 233.366 120.212 232.462 119.098 232.462C117.985 232.462 117.081 233.366 117.081 234.48Z" fill="#B95B7B"/>
<path d="M117.081 248.983C117.081 250.096 117.985 251 119.098 251C120.212 251 121.116 250.096 121.116 248.983C121.116 247.869 120.212 246.965 119.098 246.965C117.985 246.965 117.081 247.869 117.081 248.983Z" fill="#B95B7B"/>
<path d="M102.391 205.473C102.391 206.587 103.295 207.491 104.408 207.491C105.522 207.491 106.426 206.587 106.426 205.473C106.426 204.36 105.522 203.456 104.408 203.456C103.295 203.456 102.391 204.36 102.391 205.473Z" fill="#B95B7B"/>
<path d="M102.391 219.976C102.391 221.09 103.295 221.994 104.408 221.994C105.522 221.994 106.426 221.09 106.426 219.976C106.426 218.863 105.522 217.959 104.408 217.959C103.295 217.959 102.391 218.863 102.391 219.976Z" fill="#B95B7B"/>
<path d="M102.391 234.48C102.391 235.593 103.295 236.497 104.408 236.497C105.522 236.497 106.426 235.593 106.426 234.48C106.426 233.366 105.522 232.462 104.408 232.462C103.295 232.462 102.391 233.366 102.391 234.48Z" fill="#B95B7B"/>
<path d="M102.391 248.983C102.391 250.096 103.295 251 104.408 251C105.522 251 106.426 250.096 106.426 248.983C106.426 247.869 105.522 246.965 104.408 246.965C103.295 246.965 102.391 247.869 102.391 248.983Z" fill="#B95B7B"/>
<path d="M87.7004 205.473C87.7004 206.587 88.6044 207.491 89.7178 207.491C90.8313 207.491 91.7352 206.587 91.7352 205.473C91.7352 204.36 90.8313 203.456 89.7178 203.456C88.6014 203.456 87.7004 204.36 87.7004 205.473Z" fill="#B95B7B"/>
<path d="M87.7004 219.976C87.7004 221.09 88.6044 221.994 89.7178 221.994C90.8313 221.994 91.7352 221.09 91.7352 219.976C91.7352 218.863 90.8313 217.959 89.7178 217.959C88.6014 217.959 87.7004 218.863 87.7004 219.976Z" fill="#B95B7B"/>
<path d="M87.7004 234.48C87.7004 235.593 88.6044 236.497 89.7178 236.497C90.8313 236.497 91.7352 235.593 91.7352 234.48C91.7352 233.366 90.8313 232.462 89.7178 232.462C88.6014 232.462 87.7004 233.366 87.7004 234.48Z" fill="#B95B7B"/>
<path d="M87.7004 248.983C87.7004 250.096 88.6044 251 89.7178 251C90.8313 251 91.7352 250.096 91.7352 248.983C91.7352 247.869 90.8313 246.965 89.7178 246.965C88.6014 246.965 87.7004 247.869 87.7004 248.983Z" fill="#B95B7B"/>
<path d="M73.0058 205.473C73.0058 206.587 73.9104 207.491 75.0247 207.491C76.139 207.491 77.0406 206.587 77.0406 205.473C77.0406 204.36 76.139 203.456 75.0247 203.456C73.9074 203.456 73.0058 204.36 73.0058 205.473Z" fill="#B95B7B"/>
<path d="M73.0058 219.976C73.0058 221.09 73.9104 221.994 75.0247 221.994C76.139 221.994 77.0406 221.09 77.0406 219.976C77.0406 218.863 76.139 217.959 75.0247 217.959C73.9074 217.959 73.0058 218.863 73.0058 219.976Z" fill="#B95B7B"/>
<path d="M73.0058 234.48C73.0058 235.593 73.9104 236.497 75.0247 236.497C76.139 236.497 77.0406 235.593 77.0406 234.48C77.0406 233.366 76.139 232.462 75.0247 232.462C73.9074 232.462 73.0058 233.366 73.0058 234.48Z" fill="#B95B7B"/>
<path d="M73.0058 248.983C73.0058 250.096 73.9104 251 75.0247 251C76.139 251 77.0406 250.096 77.0406 248.983C77.0406 247.869 76.139 246.965 75.0247 246.965C73.9074 246.965 73.0058 247.869 73.0058 248.983Z" fill="#B95B7B"/>
<path d="M58.3155 205.473C58.3155 206.587 59.2164 207.491 60.3329 207.491C61.4463 207.491 62.3503 206.587 62.3503 205.473C62.3503 204.36 61.4463 203.456 60.3329 203.456C59.2194 203.456 58.3155 204.36 58.3155 205.473Z" fill="#B95B7B"/>
<path d="M58.3155 219.976C58.3155 221.09 59.2164 221.994 60.3329 221.994C61.4463 221.994 62.3503 221.09 62.3503 219.976C62.3503 218.863 61.4463 217.959 60.3329 217.959C59.2194 217.959 58.3155 218.863 58.3155 219.976Z" fill="#B95B7B"/>
<path d="M58.3155 234.48C58.3155 235.593 59.2164 236.497 60.3329 236.497C61.4463 236.497 62.3503 235.593 62.3503 234.48C62.3503 233.366 61.4463 232.462 60.3329 232.462C59.2194 232.462 58.3155 233.366 58.3155 234.48Z" fill="#B95B7B"/>
<path d="M58.3155 248.983C58.3155 250.096 59.2164 251 60.3329 251C61.4463 251 62.3503 250.096 62.3503 248.983C62.3503 247.869 61.4463 246.965 60.3329 246.965C59.2194 246.965 58.3155 247.869 58.3155 248.983Z" fill="#B95B7B"/>
<path d="M43.6252 205.473C43.6252 206.587 44.5291 207.491 45.6426 207.491C46.756 207.491 47.66 206.587 47.66 205.473C47.66 204.36 46.756 203.456 45.6426 203.456C44.5291 203.456 43.6252 204.36 43.6252 205.473Z" fill="#B95B7B"/>
<path d="M43.6252 219.976C43.6252 221.09 44.5291 221.994 45.6426 221.994C46.756 221.994 47.66 221.09 47.66 219.976C47.66 218.863 46.756 217.959 45.6426 217.959C44.5291 217.959 43.6252 218.863 43.6252 219.976Z" fill="#B95B7B"/>
<path d="M43.6252 234.48C43.6252 235.593 44.5291 236.497 45.6426 236.497C46.756 236.497 47.66 235.593 47.66 234.48C47.66 233.366 46.756 232.462 45.6426 232.462C44.5291 232.462 43.6252 233.366 43.6252 234.48Z" fill="#B95B7B"/>
<path d="M43.6252 248.983C43.6252 250.096 44.5291 251 45.6426 251C46.756 251 47.66 250.096 47.66 248.983C47.66 247.869 46.756 246.965 45.6426 246.965C44.5291 246.965 43.6252 247.869 43.6252 248.983Z" fill="#B95B7B"/>
<path d="M29.122 205.473C29.122 206.587 30.026 207.491 31.1395 207.491C32.2529 207.491 33.1569 206.587 33.1569 205.473C33.1569 204.36 32.2529 203.456 31.1395 203.456C30.026 203.456 29.122 204.36 29.122 205.473Z" fill="#B95B7B"/>
<path d="M29.122 219.976C29.122 221.09 30.026 221.994 31.1395 221.994C32.2529 221.994 33.1569 221.09 33.1569 219.976C33.1569 218.863 32.2529 217.959 31.1395 217.959C30.026 217.959 29.122 218.863 29.122 219.976Z" fill="#B95B7B"/>
<path d="M29.122 234.48C29.122 235.593 30.026 236.497 31.1395 236.497C32.2529 236.497 33.1569 235.593 33.1569 234.48C33.1569 233.366 32.2529 232.462 31.1395 232.462C30.026 232.462 29.122 233.366 29.122 234.48Z" fill="#B95B7B"/>
<path d="M29.122 248.983C29.122 250.096 30.026 251 31.1395 251C32.2529 251 33.1569 250.096 33.1569 248.983C33.1569 247.869 32.2529 246.965 31.1395 246.965C30.026 246.965 29.122 247.869 29.122 248.983Z" fill="#B95B7B"/>
<path d="M14.6189 205.473C14.6189 206.587 15.5229 207.491 16.6363 207.491C17.7498 207.491 18.6537 206.587 18.6537 205.473C18.6537 204.36 17.7498 203.456 16.6363 203.456C15.5229 203.456 14.6189 204.36 14.6189 205.473Z" fill="#B95B7B"/>
<path d="M14.6189 219.976C14.6189 221.09 15.5229 221.994 16.6363 221.994C17.7498 221.994 18.6537 221.09 18.6537 219.976C18.6537 218.863 17.7498 217.959 16.6363 217.959C15.5229 217.959 14.6189 218.863 14.6189 219.976Z" fill="#B95B7B"/>
<path d="M14.6189 234.48C14.6189 235.593 15.5229 236.497 16.6363 236.497C17.7498 236.497 18.6537 235.593 18.6537 234.48C18.6537 233.366 17.7498 232.462 16.6363 232.462C15.5229 232.462 14.6189 233.366 14.6189 234.48Z" fill="#B95B7B"/>
<path d="M14.6189 248.983C14.6189 250.096 15.5229 251 16.6363 251C17.7498 251 18.6537 250.096 18.6537 248.983C18.6537 247.869 17.7498 246.965 16.6363 246.965C15.5229 246.965 14.6189 247.869 14.6189 248.983Z" fill="#B95B7B"/>
<path d="M0.115877 205.473C0.115877 206.587 1.01982 207.491 2.13329 207.491C3.24675 207.491 4.1507 206.587 4.1507 205.473C4.1507 204.36 3.24675 203.456 2.13329 203.456C1.01982 203.456 0.115877 204.36 0.115877 205.473Z" fill="#B95B7B"/>
<path d="M0.115877 219.976C0.115877 221.09 1.01982 221.994 2.13329 221.994C3.24675 221.994 4.1507 221.09 4.1507 219.976C4.1507 218.863 3.24675 217.959 2.13329 217.959C1.01982 217.959 0.115877 218.863 0.115877 219.976Z" fill="#B95B7B"/>
<path d="M0.115877 234.48C0.115877 235.593 1.01982 236.497 2.13329 236.497C3.24675 236.497 4.1507 235.593 4.1507 234.48C4.1507 233.366 3.24675 232.462 2.13329 232.462C1.01982 232.462 0.115877 233.366 0.115877 234.48Z" fill="#B95B7B"/>
<path d="M0.115877 248.983C0.115877 250.096 1.01982 251 2.13329 251C3.24675 251 4.1507 250.096 4.1507 248.983C4.1507 247.869 3.24675 246.965 2.13329 246.965C1.01982 246.965 0.115877 247.869 0.115877 248.983Z" fill="#B95B7B"/>
</g>
</svg>
