<svg width="12" height="17" viewBox="0 0 12 17" fill="none" xmlns="http://www.w3.org/2000/svg">
<path d="M5.97656 0C2.68109 0 0 2.68109 0 5.97656C0 7.09 0.308424 8.1766 0.892135 9.1193L5.63636 16.7646C5.72724 16.911 5.88735 17 6.05954 17C6.06086 17 6.06216 17 6.06349 17C6.23717 16.9986 6.39761 16.9069 6.48683 16.7579L11.1101 9.03856C11.6616 8.11577 11.9531 7.05696 11.9531 5.97656C11.9531 2.68109 9.27204 0 5.97656 0ZM10.2553 8.52716L6.052 15.5452L1.73875 8.5945C1.25289 7.80984 0.989453 6.90459 0.989453 5.97656C0.989453 3.23033 3.23033 0.989453 5.97656 0.989453C8.72279 0.989453 10.9604 3.23033 10.9604 5.97656C10.9604 6.87706 10.7143 7.75917 10.2553 8.52716Z" fill="#8A97BA"/>
<path d="M5.97656 2.98828C4.32882 2.98828 2.98828 4.32882 2.98828 5.97656C2.98828 7.61378 4.30701 8.96484 5.97656 8.96484C7.6667 8.96484 8.96484 7.59578 8.96484 5.97656C8.96484 4.32882 7.6243 2.98828 5.97656 2.98828ZM5.97656 7.97539C4.87233 7.97539 3.97773 7.07781 3.97773 5.97656C3.97773 4.87807 4.87807 3.97773 5.97656 3.97773C7.07505 3.97773 7.97207 4.87807 7.97207 5.97656C7.97207 7.06174 7.0983 7.97539 5.97656 7.97539Z" fill="#8A97BA"/>
</svg>
