<svg width="203" height="74" viewBox="0 0 203 74" fill="none" xmlns="http://www.w3.org/2000/svg">
<g opacity="0.95">
<path d="M58.2498 14.6466C62.2526 11.3615 60.7031 6.0797 56.1192 3.82526C51.4707 1.50641 41.851 1.89288 35.3948 4.14733C25.9687 7.49678 20.0935 17.0299 29.7133 23.4067C34.5555 26.6273 43.2068 28.9462 47.2096 32.1668C55.0217 38.4793 50.4378 49.5582 39.5913 55.2266C26.6789 61.9255 3.50106 60.2508 3.63018 44.2764C3.69474 40.154 4.92142 35.8384 7.24566 32.2312C8.40778 30.3633 9.95727 28.753 11.7005 27.4003C13.831 25.79 11.9587 26.0476 11.0548 26.4341C4.72774 29.3971 -0.308113 38.1572 0.0146979 44.2764C1.11225 62.4408 28.6157 64.2443 43.2068 55.5486C54.1178 49.0429 62.7691 36.9334 49.5984 28.8174C44.8208 25.8544 38.3001 23.5999 34.3618 21.2167C25.6459 15.8704 30.1652 8.65621 37.8481 5.88647C58.6371 -1.52099 62.3172 14.4534 54.2469 15.4195C52.1164 15.6772 52.1809 17.1587 53.9241 16.7078C55.7964 16.1925 57.2168 15.484 58.2498 14.6466Z" fill="#E91E63"/>
<path d="M78.9979 33.0686C80.2246 30.2345 75.3179 30.2344 73.5102 35.9672C72.9291 37.7063 73.1228 40.4117 74.0267 42.4084C71.4442 48.7853 67.9578 54.196 64.8588 52.8433C63.1802 52.0703 64.7943 47.3038 66.4083 43.0526C67.2476 40.927 68.2161 37.3843 68.2806 35.2586C68.4097 32.1024 67.8287 32.4245 65.9564 32.6177C65.4399 32.6821 62.7928 33.133 62.7928 33.133C64.536 33.5839 63.8904 38.6081 62.5991 41.1202L61.437 43.3102C61.0497 44.212 61.889 44.5985 62.5991 43.5035C60.7914 48.4632 59.1773 54.2604 63.0511 55.0333C71.9607 56.8369 77.3839 38.0284 78.8688 33.3907C78.8688 33.2618 78.9334 33.133 78.9979 33.0686Z" fill="#E91E63"/>
<path d="M102.416 42.8593C103.061 41.5711 102.093 41.1846 101.512 42.344C100.156 45.1138 95.8951 53.2942 93.1835 53.1654C92.3441 53.1654 92.0213 51.9415 92.5378 49.3006C93.3771 45.3714 97.1863 38.6081 98.5421 37.2554C97.6382 37.4487 96.6698 37.0622 95.8305 36.9978C93.7645 36.869 92.8607 38.4149 91.4403 41.1202C89.7617 44.2764 87.9539 47.4326 85.6942 50.138C82.6598 53.7451 79.1089 54.2604 79.7545 49.7515C80.1419 47.3038 81.8851 44.1476 82.4016 43.2458C84.7258 39.4455 88.083 35.6451 90.9883 34.0348C93.3771 32.7465 95.7659 33.2618 96.4761 35.6451C97.5737 35.8384 98.0902 34.7433 97.1863 33.7771C93.5063 29.7836 86.0816 32.1668 82.2079 36.7401C72.459 48.3988 77.3657 59.671 84.7904 52.5856C86.6627 50.7821 88.4059 48.2056 89.4389 46.5309C87.502 53.2942 90.5364 54.9689 92.667 54.8401C96.5407 54.518 100.479 46.7885 102.416 42.8593Z" fill="#E91E63"/>
<path d="M159.593 4.27615C159.141 -1.00569 145.906 -5.83664 136.35 18.7046C136.35 18.7046 131.637 30.7498 130.863 32.4889C110.138 34.9366 114.464 12.3277 127.764 10.7174C130.604 10.3309 130.346 8.97827 127.634 9.6224C105.554 14.6466 111.365 34.6789 129.959 34.0992C127.634 38.8657 125.633 42.7305 123.18 46.5309C118.467 45.6935 111.558 45.8867 106.975 47.2394C89.6073 52.4568 98.7751 67.0141 112.269 60.5084C116.465 58.5116 120.339 54.7113 123.696 50.0091C131.896 51.6195 140.805 53.4874 147.068 59.0269C151.458 62.8273 151.264 69.3329 150.231 71.5874C149.715 72.6824 148.294 75.0013 151.071 73.5198C151.587 73.2621 152.168 72.7468 152.685 71.7806C154.299 69.0753 152.943 61.4746 146.809 56.7081C140.805 52.0703 131.96 48.6565 125.633 47.1106L126.989 44.9205C129.313 40.7981 130.798 37.6419 132.67 33.8416C146.422 31.5227 160.69 17.2875 159.593 4.27615ZM156.946 5.69323C157.01 17.6096 145.195 29.5259 133.574 32.1024C136.221 26.6273 139.256 20.8946 139.256 20.8946C149.263 1.37758 156.881 1.37758 156.946 5.69323ZM121.178 49.6227C118.079 54.0027 114.722 57.0301 111.236 58.7048C99.4208 64.3732 92.1252 53.8739 107.749 49.8803C111.946 48.7853 116.917 48.7209 121.178 49.6227Z" fill="#E91E63"/>
<path d="M170.111 42.6017C170.563 41.6355 169.465 41.3778 169.142 42.022C167.593 45.1138 164.236 53.1009 160.104 53.1009C158.554 53.1009 157.586 52.4568 157.069 51.4906C159.523 49.1718 161.524 46.1444 162.492 43.8899C164.946 38.1572 164.236 32.2312 159.329 32.1668C154.939 32.038 149.58 37.0622 147.062 42.9882C144.609 48.7209 145.319 54.5824 150.226 54.7113C152.098 54.7757 154.035 53.8739 155.843 52.5212C156.682 53.4874 158.038 54.196 159.975 54.196C165.398 54.196 169.013 45.0494 170.111 42.6017ZM160.685 34.2925C163.009 35.001 162.686 39.5743 160.168 44.8561C159.587 46.08 158.877 47.3038 158.167 48.3344C158.231 48.0768 158.296 47.8835 158.296 47.6259C158.296 46.5953 157.457 45.6935 156.359 45.6935C154.745 45.6935 154.164 46.9817 154.099 48.4632C154.099 49.4294 154.422 50.5888 155.132 51.6195C153.583 52.9077 151.969 53.5518 150.742 53.2298C148.418 52.5212 148.999 48.0123 151.517 42.7305C153.906 37.6419 157.909 33.5195 160.685 34.2925Z" fill="#E91E63"/>
<path d="M186.055 33.0686C187.282 30.2345 182.375 30.2344 180.567 35.9672C179.986 37.7063 180.18 40.4117 181.084 42.4084C178.501 48.7853 175.015 54.196 171.916 52.8433C170.237 52.0703 171.851 47.3038 173.466 43.0526C174.305 40.927 175.273 37.3843 175.338 35.2586C175.467 32.1024 174.886 32.4245 173.014 32.6177C172.497 32.6821 169.85 33.133 169.85 33.133C171.593 33.5839 170.948 38.6081 169.656 41.1202L168.494 43.3102C168.107 44.212 168.946 44.5985 169.656 43.5035C167.849 48.4632 166.235 54.2604 170.108 55.0333C179.018 56.8369 184.441 38.0284 185.926 33.3907C185.926 33.2618 185.991 33.133 186.055 33.0686Z" fill="#E91E63"/>
<path d="M202.823 42.6661C203.469 41.3134 202.178 41.4423 201.661 42.6017C200.176 46.0156 196.69 53.6162 191.008 53.6162C186.747 53.6162 187.845 47.1106 188.813 44.7917C190.556 44.7917 194.753 43.439 196.754 41.9576C200.886 38.8013 202.759 34.4213 200.305 32.5533C197.464 30.4277 192.558 32.8754 189.265 36.7401C186.424 40.0896 184.229 44.9205 184.294 48.7853C184.358 52.8433 187.264 54.9689 190.492 54.9689C197.658 54.9689 200.434 47.8191 202.823 42.6661ZM196.109 40.8625C193.784 42.7949 190.427 43.6967 189.265 43.6967C189.846 42.5373 191.46 39.7031 193.139 37.6419C201.08 28.0444 201.403 36.4181 196.109 40.8625Z" fill="#E91E63"/>
</g>
</svg>
