<svg width="17" height="17" viewBox="0 0 17 17" fill="none" xmlns="http://www.w3.org/2000/svg">
<path d="M3.46407 11.3005C5.14082 13.3048 7.15926 14.8829 9.46303 15.9996C10.3402 16.4153 11.5132 16.9084 12.8201 16.993C12.9011 16.9965 12.9786 17 13.0596 17C13.9367 17 14.6412 16.6971 15.2154 16.0736C15.2189 16.07 15.226 16.063 15.2295 16.0559C15.4338 15.8094 15.6663 15.5874 15.9094 15.3514C16.0749 15.1929 16.244 15.0274 16.4061 14.8583C17.1564 14.0763 17.1564 13.0829 16.399 12.3255L14.2819 10.2085C13.9226 9.83506 13.4929 9.6378 13.042 9.6378C12.5911 9.6378 12.1578 9.83506 11.7879 10.2049L10.5269 11.466C10.4106 11.3991 10.2908 11.3392 10.1781 11.2828C10.0372 11.2124 9.90688 11.1455 9.79063 11.0715C8.64227 10.3423 7.59959 9.39121 6.60269 8.16888C6.09896 7.53129 5.7608 6.99586 5.52478 6.44986C5.85591 6.15044 6.16589 5.83693 6.46531 5.53046C6.57099 5.42126 6.68019 5.31206 6.78939 5.20286C7.16983 4.82242 7.37414 4.3821 7.37414 3.93473C7.37414 3.48736 7.17335 3.04704 6.78939 2.6666L5.73966 1.61687C5.61637 1.49358 5.50012 1.37381 5.38036 1.25052C5.14786 1.01098 4.90481 0.764401 4.66527 0.542478C4.30244 0.186697 3.87621 0 3.42532 0C2.97795 0 2.5482 0.186697 2.17128 0.546001L0.853832 1.86345C0.37476 2.34252 0.103521 2.92375 0.0471597 3.59656C-0.0197694 4.43846 0.135224 5.3332 0.536799 6.41463C1.15325 8.08786 2.08321 9.64132 3.46407 11.3005ZM0.906671 3.67053C0.948942 3.20203 1.12859 2.81102 1.46676 2.47286L2.77716 1.16245C2.98147 0.965189 3.20692 0.863034 3.42532 0.863034C3.6402 0.863034 3.8586 0.965189 4.05939 1.1695C4.2954 1.3879 4.51732 1.61687 4.75686 1.85993C4.87663 1.98322 4.99992 2.10651 5.12321 2.23332L6.17294 3.28305C6.39134 3.50145 6.50406 3.72337 6.50406 3.94177C6.50406 4.16017 6.39134 4.3821 6.17294 4.6005C6.06374 4.7097 5.95454 4.82242 5.84534 4.93162C5.51774 5.26274 5.21127 5.57625 4.8731 5.87567C4.86606 5.88272 4.86254 5.88624 4.85549 5.89329C4.56312 6.18566 4.60891 6.46395 4.67936 6.6753C4.68288 6.68587 4.68641 6.69291 4.68993 6.70348C4.96117 7.35516 5.33808 7.97513 5.92636 8.71488C6.98313 10.0182 8.09627 11.0292 9.32213 11.8077C9.4736 11.9063 9.63564 11.9838 9.78711 12.0613C9.92801 12.1318 10.0583 12.1987 10.1746 12.2727C10.1887 12.2797 10.1993 12.2868 10.2133 12.2938C10.3296 12.3537 10.4423 12.3819 10.555 12.3819C10.8368 12.3819 11.02 12.2022 11.0799 12.1424L12.3973 10.8249C12.6017 10.6206 12.8236 10.5114 13.042 10.5114C13.3097 10.5114 13.5281 10.677 13.6655 10.8249L15.7896 12.9455C16.2123 13.3682 16.2088 13.8262 15.779 14.2735C15.6311 14.432 15.4761 14.5835 15.3105 14.742C15.0639 14.9816 14.8068 15.2281 14.5743 15.5064C14.1692 15.9432 13.6866 16.1475 13.0631 16.1475C13.0032 16.1475 12.9398 16.144 12.8799 16.1405C11.7245 16.0665 10.6501 15.6156 9.84347 15.2317C7.65242 14.1714 5.72909 12.6672 4.13336 10.758C2.81944 9.17634 1.93527 7.7039 1.35052 6.12578C0.98769 5.15707 0.850309 4.37857 0.906671 3.67053Z" fill="#8A97BA"/>
</svg>
