<svg width="22" height="84" viewBox="0 0 22 84" fill="none" xmlns="http://www.w3.org/2000/svg">
<path d="M15 83L15 1M15 83L21 76.7778M15 83L9.00001 76.7778" stroke="#10242C" stroke-width="1.5" stroke-linecap="round" stroke-linejoin="round"/>
<path d="M6.248 56.6287C6.248 56.2661 6.18667 56.0021 6.064 55.8367C5.94133 55.6714 5.768 55.5887 5.544 55.5887C5.41067 55.5887 5.296 55.6181 5.2 55.6767C5.104 55.7301 5.01867 55.8101 4.944 55.9167C4.864 56.0181 4.792 56.1434 4.728 56.2927C4.65867 56.4421 4.592 56.6127 4.528 56.8047C4.45867 56.9967 4.384 57.1834 4.304 57.3647C4.21867 57.5407 4.11467 57.6981 3.992 57.8367C3.86933 57.9701 3.72267 58.0794 3.552 58.1647C3.38133 58.2447 3.176 58.2847 2.936 58.2847C2.43467 58.2847 2.04267 58.1114 1.76 57.7647C1.472 57.4181 1.328 56.9461 1.328 56.3487C1.328 56.0021 1.368 55.6954 1.448 55.4287C1.52267 55.1567 1.60533 54.9434 1.696 54.7887L2.512 55.1007C2.41067 55.2821 2.33333 55.4821 2.28 55.7007C2.22667 55.9141 2.2 56.1354 2.2 56.3647C2.2 56.6367 2.256 56.8501 2.368 57.0047C2.48 57.1541 2.63733 57.2287 2.84 57.2287C2.96267 57.2287 3.06933 57.2047 3.16 57.1567C3.24533 57.1034 3.32267 57.0314 3.392 56.9407C3.46133 56.8447 3.52533 56.7354 3.584 56.6127C3.64267 56.4847 3.69867 56.3461 3.752 56.1967C3.848 55.9354 3.94667 55.7034 4.048 55.5007C4.144 55.2927 4.26133 55.1194 4.4 54.9807C4.53333 54.8367 4.69333 54.7274 4.88 54.6527C5.06133 54.5781 5.28267 54.5407 5.544 54.5407C6.04533 54.5407 6.43467 54.7194 6.712 55.0767C6.984 55.4287 7.12 55.9461 7.12 56.6287C7.12 56.8581 7.104 57.0687 7.072 57.2607C7.04533 57.4474 7.01067 57.6154 6.968 57.7647C6.92533 57.9087 6.88267 58.0341 6.84 58.1407C6.792 58.2474 6.74933 58.3327 6.712 58.3967L5.888 58.1007C5.968 57.9567 6.048 57.7621 6.128 57.5167C6.208 57.2714 6.248 56.9754 6.248 56.6287ZM7.12 45.5884C7.12 46.0044 7.056 46.3777 6.928 46.7084C6.8 47.0391 6.61333 47.3191 6.368 47.5484C6.11733 47.7777 5.81333 47.9537 5.456 48.0764C5.09867 48.1991 4.688 48.2604 4.224 48.2604C3.76 48.2604 3.34933 48.1911 2.992 48.0524C2.63467 47.9084 2.33333 47.7137 2.088 47.4684C1.83733 47.2231 1.648 46.9351 1.52 46.6044C1.392 46.2737 1.328 45.9191 1.328 45.5404C1.328 45.3111 1.34667 45.1031 1.384 44.9164C1.416 44.7297 1.45333 44.5671 1.496 44.4284C1.53867 44.2897 1.584 44.1751 1.632 44.0844C1.68 43.9937 1.71467 43.9297 1.736 43.8924L2.56 44.1884C2.48 44.3164 2.40533 44.5004 2.336 44.7404C2.26133 44.9751 2.224 45.2311 2.224 45.5084C2.224 45.7484 2.26667 45.9724 2.352 46.1804C2.432 46.3884 2.55467 46.5697 2.72 46.7244C2.88533 46.8737 3.09333 46.9911 3.344 47.0764C3.59467 47.1617 3.88533 47.2044 4.216 47.2044C4.50933 47.2044 4.77867 47.1724 5.024 47.1084C5.26933 47.0391 5.48267 46.9351 5.664 46.7964C5.84 46.6577 5.97867 46.4817 6.08 46.2684C6.176 46.0551 6.224 45.7991 6.224 45.5004C6.224 45.1431 6.18933 44.8524 6.12 44.6284C6.04533 44.4044 5.976 44.2311 5.912 44.1084L6.736 43.8364C6.77867 43.9004 6.82133 43.9884 6.864 44.1004C6.90667 44.2071 6.94933 44.3351 6.992 44.4844C7.02933 44.6337 7.05867 44.8017 7.08 44.9884C7.10667 45.1751 7.12 45.3751 7.12 45.5884ZM1.4 35.8228C1.4 35.0228 1.54667 34.4122 1.84 33.9908C2.13333 33.5642 2.58133 33.3508 3.184 33.3508C3.936 33.3508 4.44533 33.7215 4.712 34.4628C4.83467 34.3615 4.984 34.2468 5.16 34.1188C5.336 33.9908 5.528 33.8602 5.736 33.7268C5.93867 33.5935 6.14933 33.4655 6.368 33.3428C6.58133 33.2202 6.792 33.1108 7 33.0148L7 34.1428C6.808 34.2442 6.616 34.3535 6.424 34.4708C6.22667 34.5882 6.03733 34.7082 5.856 34.8308C5.66933 34.9482 5.496 35.0655 5.336 35.1828C5.17067 35.3002 5.024 35.4095 4.896 35.5108C4.90133 35.5855 4.904 35.6495 4.904 35.7028C4.904 35.7562 4.904 35.8068 4.904 35.8548L4.904 36.3428L7 36.3428L7 37.3508L1.536 37.3508C1.48267 37.1055 1.448 36.8442 1.432 36.5668C1.41067 36.2895 1.4 36.0415 1.4 35.8228ZM2.272 35.7508C2.272 35.9642 2.28 36.1615 2.296 36.3428L4.088 36.3428L4.088 35.9028C4.088 35.6575 4.07467 35.4415 4.048 35.2548C4.02133 35.0682 3.97333 34.9135 3.904 34.7908C3.83467 34.6628 3.74133 34.5668 3.624 34.5028C3.50667 34.4388 3.35733 34.4068 3.176 34.4068C3.00533 34.4068 2.86133 34.4388 2.744 34.5028C2.62667 34.5668 2.53333 34.6602 2.464 34.7828C2.39467 34.9002 2.34667 35.0415 2.32 35.2068C2.288 35.3722 2.272 35.5535 2.272 35.7508ZM4.224 25.88C4.528 25.88 4.80533 25.8426 5.056 25.768C5.30133 25.6933 5.512 25.5866 5.688 25.448C5.85867 25.304 5.992 25.1306 6.088 24.928C6.184 24.7253 6.232 24.496 6.232 24.24C6.232 23.9893 6.184 23.7626 6.088 23.56C5.992 23.3573 5.85867 23.1866 5.688 23.048C5.512 22.904 5.30133 22.7946 5.056 22.72C4.80533 22.6453 4.528 22.608 4.224 22.608C3.92 22.608 3.64533 22.6453 3.4 22.72C3.14933 22.7946 2.93866 22.904 2.768 23.048C2.592 23.1866 2.456 23.3573 2.36 23.56C2.264 23.7626 2.216 23.9893 2.216 24.24C2.216 24.496 2.264 24.7253 2.36 24.928C2.456 25.1306 2.592 25.304 2.768 25.448C2.944 25.5866 3.15467 25.6933 3.4 25.768C3.64533 25.8426 3.92 25.88 4.224 25.88ZM4.224 21.552C4.69866 21.552 5.11733 21.624 5.48 21.768C5.84266 21.9066 6.14666 22.0986 6.392 22.344C6.632 22.584 6.81333 22.8666 6.936 23.192C7.05867 23.5173 7.12 23.864 7.12 24.232C7.12 24.6 7.05867 24.9493 6.936 25.28C6.81333 25.6053 6.632 25.8906 6.392 26.136C6.14667 26.376 5.84267 26.568 5.48 26.712C5.11733 26.856 4.69867 26.928 4.224 26.928C3.74933 26.928 3.33333 26.856 2.976 26.712C2.61333 26.568 2.30933 26.3733 2.064 26.128C1.81866 25.8773 1.63466 25.5893 1.512 25.264C1.38933 24.9386 1.328 24.5946 1.328 24.232C1.328 23.8693 1.38933 23.5253 1.512 23.2C1.63466 22.8746 1.81866 22.592 2.064 22.352C2.30933 22.1066 2.61333 21.912 2.976 21.768C3.33333 21.624 3.74933 21.552 4.224 21.552ZM6.128 11.3422L7 11.3422L7 14.8462L1.456 14.8462L1.456 13.8382L6.128 13.8382L6.128 11.3422ZM6.128 1.46872L7 1.46872L7 4.97272L1.456 4.97272L1.456 3.96472L6.128 3.96472L6.128 1.46872Z" fill="black"/>
</svg>
