<svg width="24" height="24" viewBox="0 0 24 24" fill="none" xmlns="http://www.w3.org/2000/svg">
<path d="M22.7494 21.5399L17.3804 16.1709C18.7149 14.566 19.5189 12.5052 19.5189 10.2598C19.5189 5.15391 15.3652 1 10.2595 1C5.15379 1 1 5.15391 1 10.2598C1 15.3653 5.15379 19.5188 10.2595 19.5188C12.5049 19.5188 14.5658 18.7149 16.1707 17.3804L21.5399 22.7494C21.7068 22.9165 21.9258 23 22.1446 23C22.3635 23 22.5825 22.9165 22.7495 22.7494C23.0836 22.4154 23.0836 21.8739 22.7494 21.5399ZM2.71069 10.2598C2.71069 6.09719 6.09707 2.7107 10.2595 2.7107C14.4219 2.7107 17.8081 6.09719 17.8081 10.2598C17.8081 14.422 14.4219 17.8082 10.2595 17.8082C6.09707 17.8082 2.71069 14.422 2.71069 10.2598Z" fill="#B1B4C6" stroke="#B1B4C6" stroke-width="0.5"/>
</svg>
