<svg width="74" height="75" viewBox="0 0 74 75" fill="none" xmlns="http://www.w3.org/2000/svg">
<path d="M2.3125 58.5938H16.1875V72.6562H2.3125V58.5938Z" fill="#8DB0FF"/>
<path d="M23.125 16.4062V23.4375H21.9688L18.5 25.7812L21.9688 28.125H23.125V35.1562H2.3125V16.4062H23.125Z" fill="#E6E9ED"/>
<path d="M2.3125 39.8438H16.1875V53.9062H2.3125V39.8438Z" fill="#FF3D7F"/>
<path d="M46.25 58.5938H55.5H64.75V63.2812V72.6562H55.5H46.25V58.5938Z" fill="#FF3D7F"/>
<path d="M56.9106 40.1016L58.9688 51.5625L55.5 55.0781L52.0312 51.5625L54.0894 40.1016L55.5 38.6719L56.9106 40.1016Z" fill="#E6E9ED"/>
<path d="M64.75 56.2499V58.5937H55.5V55.0781L58.9688 51.5624L56.9106 40.1015L60.125 43.3593L61.1078 34.3593C63.825 35.039 66.2069 36.5273 68.0338 38.5429C70.3116 41.0742 71.6875 44.4374 71.6875 48.1054V56.2499H64.75Z" fill="#B4DD7F"/>
<path d="M46.25 45.7031L44.7122 47.7773C43.4981 49.418 41.5903 50.3906 39.5553 50.3906C36.6762 50.3906 34.1441 48.457 33.3463 45.6445L30.0625 33.9844L37 31.6406L39.9138 43.4648C41.9025 39.3398 45.4637 36.0938 49.9153 34.582L50.875 43.3594L54.0894 40.1016L52.0312 51.5625L55.5 55.0781V58.5938H46.25V45.7031Z" fill="#B4DD7F"/>
<path d="M61.1078 34.3477V34.3594L60.125 43.3594L56.9106 40.1016L55.5 38.6719L58.9687 33.9844C59.6972 34.0547 60.4141 34.1719 61.1078 34.3477Z" fill="#A0D468"/>
<path d="M52.0312 33.9844L55.5 38.6719L54.0894 40.1016L50.875 43.3594L49.9153 34.582C50.3431 34.4297 50.7825 34.3008 51.2334 34.1836L52.0312 33.9844Z" fill="#A0D468"/>
<path d="M40.4688 23.4375C41.7406 23.4375 42.7812 24.4922 42.7812 25.7812C42.7812 26.4258 42.5269 27.0117 42.0991 27.4336C41.6828 27.8672 41.1047 28.125 40.4688 28.125H37.6937H35.8438V23.4375H40.4688Z" fill="#AAB2BD"/>
<path d="M23.125 23.4375H35.8438V28.125H26.5938H23.125H21.9688L18.5 25.7812L21.9688 23.4375H23.125Z" fill="#FF826E"/>
<path d="M55.5 11.7188H52.0312H50.875H48.5625H46.25H46.2384C44.9666 11.7188 43.8219 11.1914 42.9778 10.3477C42.1453 9.49219 41.625 8.32031 41.625 7.03125C41.625 4.44141 43.6947 2.34375 46.25 2.34375H54.6444C58.3906 2.34375 61.79 3.89063 64.2413 6.375C66.6925 8.85938 68.2188 12.3047 68.2188 16.1016C68.2188 21.3164 65.3166 26.0859 60.7147 28.418L58.9688 29.2969V24.6094L59.2116 24.4805C60.4834 23.8477 61.2812 22.5352 61.2812 21.0938C61.2812 19.6523 60.4834 18.3398 59.2116 17.707L58.9688 17.5781V15.2344C58.9688 13.2891 57.4194 11.7188 55.5 11.7188Z" fill="#656D78"/>
<path d="M71.6875 56.25V58.5938C71.6875 61.1836 69.6178 63.2812 67.0625 63.2812H64.75V58.5938V56.25H71.6875Z" fill="#F0D0B4"/>
<path d="M58.9688 29.2969V33.9844L55.5 38.6719L52.0312 33.9844V29.2969H51.3491C50.3084 29.2969 49.3025 28.875 48.5625 28.125C47.8225 27.375 47.4062 26.3555 47.4062 25.3008V22.2656L45.7759 21.7148C44.6775 21.3398 43.9375 20.3086 43.9375 19.1367C43.9375 18.8789 43.9722 18.6211 44.0416 18.3867L45.4406 13.4062C45.6141 12.7969 45.8916 12.2227 46.2384 11.7188H46.25H48.5625H50.875H52.0312H55.5C57.4194 11.7188 58.9688 13.2891 58.9688 15.2344V17.5781L59.2116 17.707C60.4834 18.3398 61.2812 19.6523 61.2812 21.0938C61.2812 22.5352 60.4834 23.8477 59.2116 24.4805L58.9688 24.6094V29.2969Z" fill="#F0D0B4"/>
<path d="M37.6937 28.125L37 31.6406L30.0625 33.9844L27.38 30.3516C26.8944 29.707 26.6284 28.9336 26.5938 28.125H35.8438H37.6937Z" fill="#F0D0B4"/>
<path d="M60.125 32.9508V30.0211L61.2304 29.4609C66.2543 26.9156 69.375 21.798 69.375 16.1051C69.375 7.87148 62.7647 1.17188 54.6409 1.17188H46.25C43.0622 1.17188 40.4688 3.80039 40.4688 7.03125C40.4688 9.6457 42.1788 11.8395 44.5168 12.5918C44.4555 12.7582 44.3792 12.9176 44.3318 13.0887L42.9292 18.0621C42.831 18.4102 42.7812 18.7711 42.7812 19.132C42.7812 20.8113 43.8381 22.2961 45.4094 22.827L46.25 23.1105V25.2961C46.25 26.6777 46.7807 27.9773 47.745 28.9535C48.5937 29.8148 49.6945 30.3105 50.875 30.4219V33.0691C46.5714 34.1789 42.8772 36.818 40.3647 40.4473L38.1852 31.6125L38.6419 29.2969H40.4688C42.3812 29.2969 43.9375 27.7195 43.9375 25.7812C43.9375 23.843 42.3812 22.2656 40.4688 22.2656H24.2812V15.2344H1.15625V36.3281H24.2812V29.2969H25.6225C25.7878 29.9285 26.0596 30.5273 26.4527 31.0594L29.0092 34.5141L32.2386 45.968C33.167 49.2621 36.1744 51.5625 39.5542 51.5625C41.6516 51.5625 43.6658 50.666 45.0938 49.1332V73.8281H65.9062V64.4531H67.0625C70.2503 64.4531 72.8438 61.8246 72.8438 58.5938V48.0996C72.8438 40.4707 67.4464 34.1367 60.125 32.9508ZM57.7223 51.1676L55.5 53.4211L53.2777 51.1676L55.1601 40.6734L55.5 40.3289L55.8399 40.6734L57.7223 51.1676ZM51.5109 35.325L51.5676 35.3109L53.9738 38.5629L51.7584 40.807L51.1687 35.4328C51.2843 35.4 51.3942 35.3543 51.5109 35.325ZM57.0262 38.5617L59.4856 35.2383C59.6058 35.2547 59.7272 35.2687 59.8463 35.2887L59.2416 40.8059L57.0262 38.5617ZM42.7812 7.03125C42.7812 5.09297 44.3376 3.51562 46.25 3.51562H54.6409C61.4905 3.51562 67.0625 9.16289 67.0625 16.1051C67.0625 20.9051 64.432 25.2188 60.1967 27.3645L60.125 27.4008V25.3102C61.5622 24.409 62.4375 22.8316 62.4375 21.0938C62.4375 19.3559 61.5622 17.7785 60.125 16.8773V15.2344C60.125 12.6492 58.0507 10.5469 55.5 10.5469H55.2873C55.4168 10.1789 55.5 9.7875 55.5 9.375C55.5 7.43672 53.9437 5.85938 52.0312 5.85938H49.7188V8.20312H52.0312C52.6683 8.20312 53.1875 8.7293 53.1875 9.375C53.1875 10.0207 52.6683 10.5469 52.0312 10.5469H50.875H46.25C44.3376 10.5469 42.7812 8.96953 42.7812 7.03125ZM48.5625 25.2961V21.4219L46.1413 20.6039C45.5146 20.3918 45.0938 19.8 45.0938 19.132C45.0938 18.9879 45.1134 18.8438 45.1527 18.7055L46.5541 13.7332C46.6373 13.4379 46.7588 13.1602 46.8975 12.8906H50.875H52.0312H55.5C56.7753 12.8906 57.8125 13.9418 57.8125 15.2344V18.3023L58.6959 18.75C59.5769 19.1965 60.125 20.0941 60.125 21.0938C60.125 22.0934 59.5769 22.991 58.6959 23.4375L57.8125 23.8852V33.5941L55.5 36.7195L53.1875 33.5941V30.4688H55.5V28.125H51.3537H51.3525C50.6079 28.125 49.9072 27.8309 49.38 27.2965C48.8608 26.7703 48.5625 26.0414 48.5625 25.2961ZM20.5847 25.7812L22.3191 24.6094H34.6875V26.9531H22.3191L20.5847 25.7812ZM41.625 25.7812C41.625 26.427 41.1058 26.9531 40.4688 26.9531H37V24.6094H40.4688C41.1058 24.6094 41.625 25.1355 41.625 25.7812ZM21.9688 33.9844H3.46875V17.5781H21.9688V22.2656H21.6184L16.4153 25.7812L21.6184 29.2969H21.9688V33.9844ZM28.1142 29.2969H36.2831L35.9975 30.7441L30.4868 32.6062L28.3027 29.6531C28.2218 29.543 28.1778 29.4152 28.1142 29.2969ZM43.793 47.0719C42.7974 48.416 41.2134 49.2188 39.5542 49.2188C37.2012 49.2188 35.1072 47.618 34.462 45.3258L31.4778 34.7414L36.1802 33.1523L39.346 45.9867L41.5892 45.4195L41.1463 43.6254C42.8529 40.3078 45.6002 37.7273 48.9302 36.2426L49.9893 45.9117L52.2845 43.5844L50.7825 51.9562L55.5 56.7352L60.2152 51.9574L58.7132 43.5855L61.0084 45.9129L62.1068 35.891C67.0775 37.7109 70.5312 42.4863 70.5312 48.0996V55.0781H65.9062V43.3594H63.5938V57.4219H47.4062V43.3594H45.0938V45.3129L43.793 47.0719ZM56.6562 71.4844V63.968L54.005 61.2809L52.37 62.9379L54.3438 64.9383V71.4844H47.4062V59.7656H63.5938V71.4844H56.6562ZM67.0625 62.1094H65.9062V57.4219H70.5312V58.5938C70.5312 60.532 68.9749 62.1094 67.0625 62.1094Z" fill="#313F65"/>
<path d="M18.8388 19.0933L8.09376 29.9836L6.59873 28.4683L4.96379 30.1254L8.09376 33.2976L20.4737 20.7504L18.8388 19.0933Z" fill="#313F65"/>
<path d="M1.15625 55.0781H17.3438V38.6719H1.15625V55.0781ZM3.46875 41.0156H15.0312V52.7344H3.46875V41.0156Z" fill="#313F65"/>
<path d="M1.15625 73.8281H17.3438V57.4219H1.15625V73.8281ZM3.46875 59.7656H15.0312V71.4844H3.46875V59.7656Z" fill="#313F65"/>
<path d="M19.6562 57.4219H38.1562V59.7656H19.6562V57.4219Z" fill="#313F65"/>
<path d="M19.6562 62.1094H38.1562V64.4531H19.6562V62.1094Z" fill="#313F65"/>
<path d="M19.6562 66.7969H21.9688V69.1406H19.6562V66.7969Z" fill="#313F65"/>
<path d="M24.2812 66.7969H38.1562V69.1406H24.2812V66.7969Z" fill="#313F65"/>
<path d="M19.6562 71.4844H38.1562V73.8281H19.6562V71.4844Z" fill="#313F65"/>
<path d="M19.6562 52.7344H28.9062V55.0781H19.6562V52.7344Z" fill="#313F65"/>
<path d="M19.6562 48.0469H28.9062V50.3906H19.6562V48.0469Z" fill="#313F65"/>
<path d="M19.6562 43.3594H28.9062V45.7031H19.6562V43.3594Z" fill="#313F65"/>
<path d="M19.6562 38.6719H28.9062V41.0156H19.6562V38.6719Z" fill="#313F65"/>
</svg>
