<svg width="135" height="49" viewBox="0 0 135 49" fill="none" xmlns="http://www.w3.org/2000/svg">
<path d="M38.4815 9.69842C41.1259 7.52318 40.1022 4.02575 37.074 2.53294C34.0031 0.997485 27.648 1.25339 23.3828 2.7462C17.1557 4.96409 13.2744 11.2765 19.6295 15.499C22.8283 17.6316 28.5436 19.1671 31.188 21.2997C36.3489 25.4795 33.3206 32.8156 26.1552 36.5689C17.6248 41.0047 2.3129 39.8958 2.3982 29.3182C2.44085 26.5885 3.25123 23.7308 4.78669 21.3423C5.55442 20.1054 6.57806 19.0391 7.72965 18.1434C9.13716 17.0771 7.90026 17.2478 7.30314 17.5037C3.12328 19.4656 -0.203548 25.2663 0.00970987 29.3182C0.734788 41.3459 18.9044 42.5402 28.5436 36.7822C35.7518 32.4744 41.4671 24.4559 32.7662 19.0818C29.6099 17.1198 25.3021 15.627 22.7004 14.0489C16.9424 10.5088 19.928 5.73182 25.0036 3.8978C38.7374 -1.00714 41.1685 9.57046 35.8371 10.2102C34.4296 10.3808 34.4722 11.3618 35.6238 11.0633C36.8607 10.7221 37.799 10.2529 38.4815 9.69842Z" fill="#E91E63"/>
<path d="M52.1883 21.8968C52.9987 20.0201 49.7572 20.0201 48.5629 23.8161C48.1791 24.9677 48.307 26.7591 48.9041 28.0813C47.1981 32.3038 44.8949 35.8865 42.8476 34.9908C41.7387 34.479 42.805 31.3228 43.8712 28.5078C44.4257 27.1003 45.0655 24.7544 45.1081 23.3469C45.1934 21.257 44.8096 21.4703 43.5727 21.5982C43.2315 21.6409 41.4827 21.9394 41.4827 21.9394C42.6343 22.238 42.2078 25.5648 41.3548 27.2282L40.5871 28.6784C40.3312 29.2755 40.8856 29.5314 41.3548 28.8063C40.1605 32.0905 39.0943 35.9292 41.6534 36.441C47.5393 37.6352 51.122 25.181 52.103 22.11C52.103 22.0247 52.1457 21.9394 52.1883 21.8968Z" fill="#E91E63"/>
<path d="M67.6589 28.3798C68.0854 27.5268 67.4456 27.2709 67.0617 28.0386C66.166 29.8726 63.351 35.2894 61.5597 35.2041C61.0052 35.2041 60.7919 34.3937 61.1332 32.645C61.6876 30.0432 64.2041 25.5648 65.0998 24.6691C64.5026 24.7971 63.8629 24.5412 63.3084 24.4985C61.9435 24.4132 61.3464 25.4369 60.4081 27.2282C59.2991 29.3182 58.1049 31.4081 56.6121 33.1995C54.6075 35.588 52.2616 35.9292 52.6881 32.9436C52.944 31.3228 54.0956 29.2329 54.4368 28.6357C55.9723 26.1193 58.1902 23.6028 60.1095 22.5366C61.6876 21.6835 63.2657 22.0247 63.7349 23.6028C64.46 23.7308 64.8012 23.0057 64.2041 22.3659C61.7729 19.7215 56.868 21.2997 54.3089 24.3279C47.8685 32.0479 51.11 39.5119 56.015 34.8202C57.2519 33.626 58.4034 31.9199 59.0859 30.811C57.8063 35.2894 59.811 36.3983 61.2185 36.313C63.7776 36.0998 66.3793 30.9816 67.6589 28.3798Z" fill="#E91E63"/>
<path d="M105.432 2.8315C105.133 -0.66593 96.3894 -3.8648 90.077 12.3855C90.077 12.3855 86.9634 20.3613 86.4516 21.5129C72.7604 23.1337 75.618 8.16296 84.4043 7.09667C86.281 6.84076 86.1103 5.94507 84.319 6.37159C69.7321 9.69842 73.5708 22.9631 85.8544 22.5792C84.319 25.7354 82.9968 28.2945 81.376 30.811C78.2624 30.2565 73.6987 30.3845 70.6705 31.2801C59.1972 34.7349 65.2537 44.3742 74.1679 40.0664C76.9402 38.7442 79.4993 36.2277 81.7172 33.1142C87.134 34.1805 93.0199 35.4173 97.1571 39.0854C100.057 41.6018 99.9295 45.9096 99.247 47.4025C98.9058 48.1275 97.9675 49.663 99.8015 48.682C100.143 48.5114 100.527 48.1702 100.868 47.5304C101.934 45.739 101.038 40.7061 96.9865 37.5499C93.0199 34.479 87.1766 32.2185 82.9968 31.1948L83.8925 29.7447C85.4279 27.015 86.4089 24.925 87.6458 22.4086C96.7306 20.8731 106.157 11.4471 105.432 2.8315ZM103.683 3.76984C103.725 11.6604 95.9202 19.5509 88.2429 21.257C89.9916 17.6316 91.9963 13.8356 91.9963 13.8356C98.6073 0.91218 103.64 0.912181 103.683 3.76984ZM80.0538 32.8582C78.0065 35.7586 75.7887 37.7632 73.4855 38.8721C65.6802 42.6255 60.8606 35.6733 71.1823 33.0289C73.9546 32.3038 77.2388 32.2611 80.0538 32.8582Z" fill="#E91E63"/>
<path d="M112.38 28.2092C112.679 27.5694 111.954 27.3988 111.74 27.8254C110.717 29.8726 108.499 35.1614 105.769 35.1614C104.745 35.1614 104.106 34.7349 103.764 34.0951C105.385 32.5597 106.707 30.5551 107.347 29.0623C108.968 25.2663 108.499 21.3423 105.257 21.2997C102.357 21.2144 98.8169 24.5412 97.1535 28.4651C95.5327 32.2611 96.0019 36.1424 99.2434 36.2277C100.48 36.2704 101.76 35.6733 102.954 34.7776C103.509 35.4173 104.404 35.8865 105.684 35.8865C109.267 35.8865 111.655 29.83 112.38 28.2092ZM106.153 22.7072C107.688 23.1763 107.475 26.2046 105.812 29.702C105.428 30.5124 104.959 31.3228 104.49 32.0052C104.532 31.8346 104.575 31.7067 104.575 31.536C104.575 30.8536 104.02 30.2565 103.295 30.2565C102.229 30.2565 101.845 31.1095 101.802 32.0905C101.802 32.7303 102.016 33.498 102.485 34.1804C101.461 35.0335 100.395 35.46 99.5846 35.2467C98.0491 34.7776 98.433 31.792 100.096 28.2945C101.675 24.925 104.319 22.1953 106.153 22.7072Z" fill="#E91E63"/>
<path d="M122.913 21.8968C123.724 20.0201 120.482 20.0201 119.288 23.8161C118.904 24.9677 119.032 26.7591 119.629 28.0813C117.923 32.3038 115.62 35.8865 113.573 34.9908C112.464 34.479 113.53 31.3228 114.596 28.5078C115.151 27.1003 115.791 24.7544 115.833 23.3469C115.918 21.257 115.535 21.4703 114.298 21.5982C113.957 21.6409 112.208 21.9394 112.208 21.9394C113.359 22.238 112.933 25.5648 112.08 27.2282L111.312 28.6784C111.056 29.2755 111.611 29.5314 112.08 28.8063C110.886 32.0905 109.819 35.9292 112.378 36.441C118.264 37.6352 121.847 25.181 122.828 22.11C122.828 22.0247 122.871 21.9394 122.913 21.8968Z" fill="#E91E63"/>
<path d="M133.991 28.2519C134.417 27.3562 133.564 27.4415 133.223 28.2092C132.242 30.4698 129.939 35.5027 126.186 35.5027C123.371 35.5027 124.096 31.1948 124.735 29.6594C125.887 29.6594 128.659 28.7637 129.982 27.7827C132.711 25.6928 133.948 22.7925 132.327 21.5556C130.451 20.1481 127.209 21.7688 125.034 24.3279C123.157 26.5458 121.707 29.7447 121.75 32.3038C121.792 34.9908 123.712 36.3983 125.844 36.3983C130.579 36.3983 132.413 31.664 133.991 28.2519ZM129.555 27.0576C128.02 28.3372 125.802 28.9343 125.034 28.9343C125.418 28.1666 126.484 26.2899 127.593 24.925C132.839 18.57 133.052 24.1147 129.555 27.0576Z" fill="#E91E63"/>
</svg>
